<svg width="48" height="46" viewBox="0 0 48 46" fill="none" xmlns="http://www.w3.org/2000/svg">
<path d="M35.0118 23.2805C35.0118 29.3219 30.0816 34.2195 24 34.2195C17.9184 34.2195 12.9882 29.3219 12.9882 23.2805C12.9882 17.239 17.9184 12.3415 24 12.3415C30.0816 12.3415 35.0118 17.239 35.0118 23.2805Z" fill="#F9D71C"/>
<path d="M0 23.561C0 22.9413 0.505655 22.439 1.12941 22.439H7.90588C8.52964 22.439 9.03529 22.9413 9.03529 23.561C9.03529 24.1806 8.52964 24.6829 7.90588 24.6829H1.12941C0.505655 24.6829 0 24.1806 0 23.561Z" fill="#F9D71C"/>
<path d="M7.01038 40.2376C6.56932 39.7995 6.56932 39.0891 7.01038 38.6509L11.8021 33.8909C12.2431 33.4528 12.9582 33.4528 13.3993 33.8909C13.8404 34.3291 13.8404 35.0394 13.3993 35.4776L8.60761 40.2376C8.16655 40.6758 7.45144 40.6758 7.01038 40.2376Z" fill="#F9D71C"/>
<path d="M23.7176 46C23.0939 46 22.5882 45.4977 22.5882 44.878V38.1463C22.5882 37.5267 23.0939 37.0244 23.7176 37.0244C24.3414 37.0244 24.8471 37.5267 24.8471 38.1463V44.878C24.8471 45.4977 24.3414 46 23.7176 46Z" fill="#F9D71C"/>
<path d="M40.5051 40.2376C40.064 40.6757 39.3489 40.6757 38.9078 40.2376L34.1161 35.4776C33.6751 35.0394 33.6751 34.329 34.1161 33.8909C34.5572 33.4527 35.2723 33.4527 35.7134 33.8909L40.5051 38.6509C40.9461 39.0891 40.9461 39.7994 40.5051 40.2376Z" fill="#F9D71C"/>
<path d="M48 23.561C48 24.1806 47.4943 24.6829 46.8706 24.6829H40.0941C39.4704 24.6829 38.9647 24.1806 38.9647 23.561C38.9647 22.9413 39.4704 22.439 40.0941 22.439H46.8706C47.4943 22.439 48 22.9413 48 23.561Z" fill="#F9D71C"/>
<path d="M40.5052 6.96404C40.9462 7.40219 40.9462 8.11257 40.5052 8.55072L35.7135 13.3108C35.2724 13.7489 34.5573 13.7489 34.1162 13.3108C33.6752 12.8726 33.6752 12.1622 34.1162 11.7241L38.9079 6.96404C39.349 6.52589 40.0641 6.52589 40.5052 6.96404Z" fill="#F9D71C"/>
<path d="M23.7176 0C24.3414 2.70852e-08 24.8471 0.502315 24.8471 1.12195V7.85366C24.8471 8.4733 24.3414 8.97561 23.7176 8.97561C23.0939 8.97561 22.5882 8.4733 22.5882 7.85366V1.12195C22.5882 0.502315 23.0939 -2.70852e-08 23.7176 0Z" fill="#F9D71C"/>
<path d="M7.01049 6.96407C7.45155 6.52592 8.16665 6.52592 8.60771 6.96407L13.3994 11.7241C13.8405 12.1623 13.8405 12.8726 13.3994 13.3108C12.9583 13.7489 12.2432 13.7489 11.8022 13.3108L7.01049 8.55075C6.56942 8.1126 6.56942 7.40222 7.01049 6.96407Z" fill="#F9D71C"/>
</svg>
