<svg width="74" height="64" viewBox="0 0 74 64" fill="none" xmlns="http://www.w3.org/2000/svg">
<g filter="url(#filter0_d_24_84)">
<path d="M54.3065 28.3415C54.3065 35.6963 48.3493 41.6585 41.0006 41.6585C33.652 41.6585 27.6948 35.6963 27.6948 28.3415C27.6948 20.9866 33.652 15.0244 41.0006 15.0244C48.3493 15.0244 54.3065 20.9866 54.3065 28.3415Z" fill="#F9D71C"/>
<path d="M17.2734 38C17.2734 37.2457 17.8844 36.6341 18.6381 36.6341H26.8264C27.5801 36.6341 28.1911 37.2457 28.1911 38C28.1911 38.7543 27.5801 39.3659 26.8264 39.3659H18.6381C17.8844 39.3659 17.2734 38.7543 17.2734 38Z" fill="#F9D71C"/>
<path d="M20.4715 48.9849C19.9386 48.4515 19.9386 47.5867 20.4715 47.0533L26.2615 41.2585C26.7944 40.7251 27.6585 40.7251 28.1915 41.2585C28.7244 41.7919 28.7244 42.6567 28.1915 43.1901L22.4015 48.9849C21.8685 49.5183 21.0045 49.5183 20.4715 48.9849Z" fill="#F9D71C"/>
<path d="M40.6595 54.1169C39.9058 54.1169 39.2948 53.5054 39.2948 52.7511V44.556C39.2948 43.8016 39.9058 43.1901 40.6595 43.1901C41.4132 43.1901 42.0242 43.8016 42.0242 44.556V52.7511C42.0242 53.5054 41.4132 54.1169 40.6595 54.1169Z" fill="#F9D71C"/>
<path d="M55.1543 48.3706C54.6213 48.904 53.7573 48.904 53.2243 48.3706L47.4343 42.5758C46.9014 42.0424 46.9014 41.1776 47.4343 40.6442C47.9673 40.1108 48.8314 40.1108 49.3643 40.6442L55.1543 46.439C55.6872 46.9724 55.6872 47.8372 55.1543 48.3706Z" fill="#F9D71C"/>
<path d="M70.0006 28.6829C70.0006 29.4373 69.3896 30.0488 68.6359 30.0488H60.4477C59.694 30.0488 59.083 29.4373 59.083 28.6829C59.083 27.9286 59.694 27.3171 60.4477 27.3171H68.6359C69.3896 27.3171 70.0006 27.9286 70.0006 28.6829Z" fill="#F9D71C"/>
<path d="M60.9444 8.47796C61.4773 9.01136 61.4773 9.87617 60.9444 10.4096L55.1544 16.2044C54.6215 16.7378 53.7574 16.7378 53.2244 16.2044C52.6915 15.671 52.6915 14.8062 53.2244 14.2728L59.0144 8.47796C59.5473 7.94456 60.4114 7.94456 60.9444 8.47796Z" fill="#F9D71C"/>
<path d="M40.6595 0C41.4132 3.29733e-08 42.0242 0.611514 42.0242 1.36585V9.56098C42.0242 10.3153 41.4132 10.9268 40.6595 10.9268C39.9058 10.9268 39.2948 10.3153 39.2948 9.56098V1.36585C39.2948 0.611513 39.9058 -3.29733e-08 40.6595 0Z" fill="#F9D71C"/>
<path d="M20.4716 8.478C21.0046 7.9446 21.8687 7.9446 22.4016 8.478L28.1916 14.2728C28.7245 14.8062 28.7245 15.671 28.1916 16.2044C27.6586 16.7378 26.7945 16.7378 26.2616 16.2044L20.4716 10.4096C19.9387 9.87621 19.9387 9.0114 20.4716 8.478Z" fill="#F9D71C"/>
<path fill-rule="evenodd" clip-rule="evenodd" d="M23.734 21.2168C19.0078 23.3142 15.0372 28.6016 15.0372 32.7972C15.0372 34.0644 14.482 34.4906 12.0037 35.1255C6.48439 36.5407 3.10098 41.9761 4.20999 47.6436C4.81877 50.7542 8.28706 54.4403 11.4492 55.3386C13.0968 55.8061 20.8787 55.9855 33.5273 55.8468C33.5273 55.8468 51.125 56.3068 53.0604 55.6327C54.3013 55.2005 55.8795 53.8434 55.8795 53.8434C60.2356 51.0783 62 47.831 62 42.579C62 38.9396 61.6827 37.7358 60.1333 35.4916C57.2286 31.2833 53.8716 29.6227 48.2716 29.6227C43.8223 29.6227 43.5481 29.5313 42.7981 27.796C42.364 26.7909 40.8152 24.9355 39.3563 23.6717C35.012 19.9096 28.8582 18.9426 23.734 21.2168Z" fill="#46C9FF"/>
</g>
<defs>
<filter id="filter0_d_24_84" x="0" y="0" width="74.0005" height="64" filterUnits="userSpaceOnUse" color-interpolation-filters="sRGB">
<feFlood flood-opacity="0" result="BackgroundImageFix"/>
<feColorMatrix in="SourceAlpha" type="matrix" values="0 0 0 0 0 0 0 0 0 0 0 0 0 0 0 0 0 0 127 0" result="hardAlpha"/>
<feOffset dy="4"/>
<feGaussianBlur stdDeviation="2"/>
<feComposite in2="hardAlpha" operator="out"/>
<feColorMatrix type="matrix" values="0 0 0 0 0 0 0 0 0 0 0 0 0 0 0 0 0 0 0.25 0"/>
<feBlend mode="normal" in2="BackgroundImageFix" result="effect1_dropShadow_24_84"/>
<feBlend mode="normal" in="SourceGraphic" in2="effect1_dropShadow_24_84" result="shape"/>
</filter>
</defs>
</svg>
