<svg width="224" height="225" viewBox="0 0 224 225" fill="none" xmlns="http://www.w3.org/2000/svg">
<g filter="url(#filter0_d_11_13)">
<path fill-rule="evenodd" clip-rule="evenodd" d="M77.4921 4.72539C59.8911 12.8711 45.104 33.405 45.104 49.699C45.104 54.6201 43.0363 56.2751 33.807 58.7408C13.2522 64.2369 0.65191 85.3458 4.78205 107.356C7.04922 119.436 19.9656 133.751 31.7419 137.24C37.8776 139.056 66.8585 139.752 113.964 139.214C113.964 139.214 179.5 141 186.708 138.382C191.329 136.704 197.207 131.433 197.207 131.433C213.429 120.695 220 108.084 220 87.6872C220 73.5533 218.818 68.8783 213.048 60.1628C202.231 43.8196 189.729 37.3704 168.873 37.3704C152.304 37.3704 151.283 37.0155 148.49 30.2762C146.873 26.373 141.105 19.1675 135.672 14.2594C119.493 -0.351108 96.5752 -4.10668 77.4921 4.72539ZM46.3995 152.628C45.5186 154.052 45.6274 156.559 46.6431 158.201C47.6562 159.841 46.4125 162.7 43.8784 164.552C37.7921 168.999 40.5982 176.894 47.4904 174.708C50.7344 173.679 53.3591 174.666 54.9552 177.52C58.4013 183.677 66.7289 180.253 64.6017 173.553C63.573 170.31 64.5602 167.686 67.4156 166.091C73.717 162.566 70.1284 154.327 63.2414 156.513C59.7745 157.613 57.5125 156.805 56.4735 154.101C54.722 149.54 48.8403 148.678 46.3995 152.628ZM144.86 162.988C143.979 164.412 144.087 166.919 145.103 168.561C146.116 170.201 144.872 173.06 142.338 174.912C136.252 179.359 139.058 187.254 145.95 185.068C149.194 184.04 151.819 185.026 153.415 187.881C156.861 194.037 165.189 190.613 163.062 183.913C162.033 180.67 163.02 178.046 165.876 176.451C172.177 172.926 168.588 164.687 161.701 166.873C158.235 167.974 155.973 167.165 154.934 164.461C153.182 159.9 147.3 159.038 144.86 162.988ZM93.0385 188.888C92.1575 190.313 92.2663 192.82 93.282 194.462C94.2951 196.101 93.0514 198.961 90.5174 200.813C84.431 205.26 87.2371 213.154 94.1293 210.968C97.3733 209.94 99.998 210.927 101.594 213.781C105.04 219.938 113.368 216.514 111.241 209.813C110.212 206.57 111.199 203.947 114.054 202.351C120.356 198.826 116.767 190.587 109.88 192.773C106.413 193.874 104.151 193.066 103.112 190.362C101.361 185.801 95.4792 184.938 93.0385 188.888Z" fill="white"/>
</g>
<defs>
<filter id="filter0_d_11_13" x="0" y="0" width="224" height="225" filterUnits="userSpaceOnUse" color-interpolation-filters="sRGB">
<feFlood flood-opacity="0" result="BackgroundImageFix"/>
<feColorMatrix in="SourceAlpha" type="matrix" values="0 0 0 0 0 0 0 0 0 0 0 0 0 0 0 0 0 0 127 0" result="hardAlpha"/>
<feOffset dy="4"/>
<feGaussianBlur stdDeviation="2"/>
<feComposite in2="hardAlpha" operator="out"/>
<feColorMatrix type="matrix" values="0 0 0 0 0 0 0 0 0 0 0 0 0 0 0 0 0 0 0.25 0"/>
<feBlend mode="normal" in2="BackgroundImageFix" result="effect1_dropShadow_11_13"/>
<feBlend mode="normal" in="SourceGraphic" in2="effect1_dropShadow_11_13" result="shape"/>
</filter>
</defs>
</svg>
