<svg width="76" height="50" viewBox="0 0 76 50" fill="none" xmlns="http://www.w3.org/2000/svg">
<g filter="url(#filter0_d_24_93)">
<path fill-rule="evenodd" clip-rule="evenodd" d="M21.0121 1.04777C16.9378 2.85393 13.5148 7.40695 13.5148 11.0198C13.5148 12.111 13.0362 12.478 10.8998 13.0247C6.14171 14.2434 3.22498 18.9239 4.18103 23.8042C4.70584 26.4828 7.69574 29.6569 10.4217 30.4305C11.842 30.833 18.5506 30.9875 29.4546 30.8681C29.4546 30.8681 44.625 31.2642 46.2934 30.6837C47.3632 30.3115 48.7237 29.1429 48.7237 29.1429C52.479 26.7619 54 23.9656 54 19.443C54 16.3091 53.7265 15.2725 52.3908 13.34C49.8867 9.71619 46.9928 8.28619 42.1651 8.28619C38.3295 8.28619 38.0932 8.20751 37.4467 6.7132C37.0724 5.84773 35.7373 4.25004 34.4795 3.16175C30.7345 -0.0778482 25.4295 -0.910577 21.0121 1.04777Z" fill="#12BAFF"/>
<path fill-rule="evenodd" clip-rule="evenodd" d="M33.734 7.21677C29.0078 9.31424 25.0372 14.6016 25.0372 18.7972C25.0372 20.0644 24.482 20.4906 22.0037 21.1255C16.4844 22.5407 13.101 27.9761 14.21 33.6436C14.8188 36.7542 18.2871 40.4403 21.4492 41.3386C23.0968 41.8061 30.8787 41.9855 43.5273 41.8468C43.5273 41.8468 61.125 42.3068 63.0604 41.6327C64.3013 41.2005 65.8795 39.8434 65.8795 39.8434C70.2356 37.0783 72 33.831 72 28.579C72 24.9396 71.6827 23.7358 70.1333 21.4916C67.2286 17.2833 63.8716 15.6227 58.2716 15.6227C53.8223 15.6227 53.5481 15.5313 52.7981 13.796C52.364 12.7909 50.8152 10.9355 49.3563 9.67171C45.012 5.9096 38.8582 4.94256 33.734 7.21677Z" fill="#46C9FF"/>
</g>
<defs>
<filter id="filter0_d_24_93" x="0" y="0" width="76" height="50" filterUnits="userSpaceOnUse" color-interpolation-filters="sRGB">
<feFlood flood-opacity="0" result="BackgroundImageFix"/>
<feColorMatrix in="SourceAlpha" type="matrix" values="0 0 0 0 0 0 0 0 0 0 0 0 0 0 0 0 0 0 127 0" result="hardAlpha"/>
<feOffset dy="4"/>
<feGaussianBlur stdDeviation="2"/>
<feComposite in2="hardAlpha" operator="out"/>
<feColorMatrix type="matrix" values="0 0 0 0 0 0 0 0 0 0 0 0 0 0 0 0 0 0 0.25 0"/>
<feBlend mode="normal" in2="BackgroundImageFix" result="effect1_dropShadow_24_93"/>
<feBlend mode="normal" in="SourceGraphic" in2="effect1_dropShadow_24_93" result="shape"/>
</filter>
</defs>
</svg>
