<svg width="58" height="47" viewBox="0 0 58 47" fill="none" xmlns="http://www.w3.org/2000/svg">
<path fill-rule="evenodd" clip-rule="evenodd" d="M19.734 1.21677C15.0078 3.31424 11.0372 8.60162 11.0372 12.7972C11.0372 14.0644 10.482 14.4906 8.00373 15.1255C2.48439 16.5407 -0.899024 21.9761 0.209994 27.6436C0.818771 30.7542 4.28706 34.4403 7.44923 35.3386C9.09675 35.8061 16.8787 35.9855 29.5273 35.8468C29.5273 35.8468 47.125 36.3068 49.0604 35.6327C50.3013 35.2005 51.8795 33.8434 51.8795 33.8434C56.2356 31.0783 58 27.831 58 22.579C58 18.9396 57.6827 17.7358 56.1333 15.4916C53.2286 11.2833 49.8716 9.62268 44.2716 9.62268C39.8223 9.62268 39.5481 9.53131 38.7981 7.79597C38.364 6.79092 36.8152 4.93553 35.3563 3.67171C31.012 -0.0904043 24.8582 -1.05744 19.734 1.21677Z" fill="#00B5FF"/>
<path d="M8 39.5C8 38.6716 8.67157 38 9.5 38H26.5C27.3284 38 28 38.6716 28 39.5C28 40.3284 27.3284 41 26.5 41H9.5C8.67157 41 8 40.3284 8 39.5Z" fill="#00B5FF"/>
<path d="M31 39.5C31 38.6716 31.6716 38 32.5 38H41.5C42.3284 38 43 38.6716 43 39.5C43 40.3284 42.3284 41 41.5 41H32.5C31.6716 41 31 40.3284 31 39.5Z" fill="#00B5FF"/>
<path d="M4 45.5C4 44.6716 4.67157 44 5.5 44H11.5C12.3284 44 13 44.6716 13 45.5C13 46.3284 12.3284 47 11.5 47H5.5C4.67157 47 4 46.3284 4 45.5Z" fill="#00B5FF"/>
<path d="M16 45.5C16 44.6716 16.6716 44 17.5 44H36.5C37.3284 44 38 44.6716 38 45.5C38 46.3284 37.3284 47 36.5 47H17.5C16.6716 47 16 46.3284 16 45.5Z" fill="#00B5FF"/>
</svg>
