<svg width="58" height="46" viewBox="0 0 58 46" fill="none" xmlns="http://www.w3.org/2000/svg">
<path fill-rule="evenodd" clip-rule="evenodd" d="M19.734 1.21677C15.0078 3.31424 11.0372 8.60161 11.0372 12.7972C11.0372 14.0644 10.482 14.4906 8.00373 15.1255C2.48439 16.5407 -0.899024 21.9761 0.209994 27.6436C0.818771 30.7542 4.28706 34.4402 7.44923 35.3386C9.09675 35.8061 16.8787 35.9855 29.5273 35.8468C29.5273 35.8468 47.125 36.3068 49.0604 35.6327C50.3013 35.2005 51.8795 33.8434 51.8795 33.8434C56.2356 31.0783 58 27.831 58 22.579C58 18.9396 57.6827 17.7358 56.1333 15.4916C53.2286 11.2833 49.8716 9.62268 44.2716 9.62268C39.8223 9.62268 39.5481 9.53131 38.7981 7.79597C38.364 6.79092 36.8152 4.93553 35.3563 3.67171C31.012 -0.0904043 24.8582 -1.05744 19.734 1.21677Z" fill="#898989"/>
<path d="M21 41.5C21 42.3284 20.3284 43 19.5 43C18.6716 43 18 42.3284 18 41.5C18 40.6716 18.6716 40 19.5 40C20.3284 40 21 40.6716 21 41.5Z" fill="#00B5FF"/>
<path d="M26 44.5C26 45.3284 25.3284 46 24.5 46C23.6716 46 23 45.3284 23 44.5C23 43.6716 23.6716 43 24.5 43C25.3284 43 26 43.6716 26 44.5Z" fill="#00B5FF"/>
<path d="M32 41.5C32 42.3284 31.3284 43 30.5 43C29.6716 43 29 42.3284 29 41.5C29 40.6716 29.6716 40 30.5 40C31.3284 40 32 40.6716 32 41.5Z" fill="#00B5FF"/>
<path d="M37 44.5C37 45.3284 36.3284 46 35.5 46C34.6716 46 34 45.3284 34 44.5C34 43.6716 34.6716 43 35.5 43C36.3284 43 37 43.6716 37 44.5Z" fill="#00B5FF"/>
<path d="M41 40.5C41 41.3284 40.3284 42 39.5 42C38.6716 42 38 41.3284 38 40.5C38 39.6716 38.6716 39 39.5 39C40.3284 39 41 39.6716 41 40.5Z" fill="#00B5FF"/>
</svg>
