<svg width="58" height="49" viewBox="0 0 58 49" fill="none" xmlns="http://www.w3.org/2000/svg">
<path fill-rule="evenodd" clip-rule="evenodd" d="M19.734 1.21677C15.0078 3.31424 11.0372 8.60162 11.0372 12.7972C11.0372 14.0644 10.482 14.4906 8.00373 15.1255C2.48439 16.5407 -0.899024 21.9761 0.209994 27.6436C0.818771 30.7542 4.28706 34.4403 7.44923 35.3386C9.09675 35.8061 16.8787 35.9855 29.5273 35.8468C29.5273 35.8468 47.125 36.3068 49.0604 35.6327C50.3013 35.2005 51.8795 33.8434 51.8795 33.8434C56.2356 31.0783 58 27.831 58 22.579C58 18.9396 57.6827 17.7358 56.1333 15.4916C53.2286 11.2833 49.8716 9.62268 44.2716 9.62268C39.8223 9.62268 39.5481 9.53131 38.7981 7.79597C38.364 6.79092 36.8152 4.93553 35.3563 3.67171C31.012 -0.0904043 24.8582 -1.05744 19.734 1.21677Z" fill="#898989"/>
<path d="M8 39.5C8 38.6716 8.67157 38 9.5 38H26.5C27.3284 38 28 38.6716 28 39.5C28 40.3284 27.3284 41 26.5 41H9.5C8.67157 41 8 40.3284 8 39.5Z" fill="#898989"/>
<path d="M31 39.5C31 38.6716 31.6716 38 32.5 38H41.5C42.3284 38 43 38.6716 43 39.5C43 40.3284 42.3284 41 41.5 41H32.5C31.6716 41 31 40.3284 31 39.5Z" fill="#898989"/>
<path d="M20 46C20 46.5523 19.5523 47 19 47C18.4477 47 18 46.5523 18 46C18 45.4477 18.4477 45 19 45C19.5523 45 20 45.4477 20 46Z" fill="#00B5FF"/>
<path d="M25 45C25 45.5523 24.5523 46 24 46C23.4477 46 23 45.5523 23 45C23 44.4477 23.4477 44 24 44C24.5523 44 25 44.4477 25 45Z" fill="#00B5FF"/>
<path d="M29 48C29 48.5523 28.5523 49 28 49C27.4477 49 27 48.5523 27 48C27 47.4477 27.4477 47 28 47C28.5523 47 29 47.4477 29 48Z" fill="#00B5FF"/>
<path d="M31 45C31 45.5523 30.5523 46 30 46C29.4477 46 29 45.5523 29 45C29 44.4477 29.4477 44 30 44C30.5523 44 31 44.4477 31 45Z" fill="#00B5FF"/>
<path d="M35 47C35 47.5523 34.5523 48 34 48C33.4477 48 33 47.5523 33 47C33 46.4477 33.4477 46 34 46C34.5523 46 35 46.4477 35 47Z" fill="#00B5FF"/>
</svg>
