<svg width="860" height="615" viewBox="0 0 860 615" fill="none" xmlns="http://www.w3.org/2000/svg">
<g filter="url(#filter0_d_1_10)">
<path d="M210.437 218.164H216.373V207.775L217.857 194.418L219.341 186.998L223.793 169.188L228.245 154.347L234.182 139.506L243.086 120.213L250.506 106.856L262.379 90.5306L272.767 77.1736L289.092 59.3643L308.384 43.0391L318.773 35.6186L333.613 26.7139L348.454 19.2934L366.262 11.8729L392.975 4.45232L424.141 0H456.79L472.372 1.48411L483.503 2.96822L501.311 7.42054L527.282 16.3252L547.317 25.2298L568.094 37.1027L585.902 50.4597L600.743 62.3325L611.131 74.2054L624.488 89.0465L634.876 103.888L645.264 121.697L652.685 136.538L660.105 154.347L666.041 173.641V179.577H634.876L628.94 181.061L602.227 185.513L585.16 189.966L568.094 197.386L548.801 206.291L530.992 218.164L513.184 231.521L501.311 243.394L490.923 253.782L482.019 264.171L476.082 271.592L468.662 281.98L458.274 296.822L449.369 311.663L440.465 327.988L433.045 341.345L425.625 353.218L421.172 359.154L407.816 375.479L397.428 387.352L390.007 394.031L376.651 406.645L366.262 414.066L352.906 422.971L342.518 428.907L318.773 440.78L297.996 449.685L271.283 457.105L281.671 455.621L296.512 454.137L306.9 452.653L316.547 451.169L338.065 446.716L363.294 439.296L388.523 428.907L406.332 420.002L421.172 411.098L430.077 403.677L443.433 391.804L450.854 384.384L459.758 373.995L467.178 363.606L476.082 350.249L483.503 336.892L492.407 320.567L498.343 310.178L508.732 295.337L520.604 280.496L536.929 264.171L553.253 250.814L576.998 235.973L602.227 225.584L624.488 219.648L645.264 216.68H670.493L686.818 218.164L697.206 219.648L713.531 224.1L734.308 231.521L753.6 240.425L774.377 253.782L792.186 268.623L805.542 281.98L812.962 289.401L823.351 304.242L829.287 313.147L838.191 327.988L845.612 345.797L851.548 365.09L854.516 379.932L856 391.804V430.391L854.516 442.264L853.032 451.169L851.548 457.105L847.096 473.43L839.675 492.724L832.255 507.565L821.867 523.89L809.994 538.731L804.058 546.152L796.638 553.572L789.218 559.509L780.313 566.929L766.957 575.834L750.632 586.223L729.855 595.127L704.627 602.548L674.738 607H180.756L168.883 605.516L152.559 602.548L136.234 598.095L116.941 590.675L94.6806 578.802L79.8401 568.413L66.4836 556.54L56.0952 546.152L41.2547 528.342L33.8344 516.469L24.9301 500.144L14.5418 474.914L8.60554 454.137L4.15337 427.062C4.15337 427.062 3.80829 389.857 4.15337 382.9C4.49846 375.943 5.63743 371.027 5.63743 371.027L10.0896 350.249L14.5418 336.892L20.478 322.051L27.8982 305.726L38.2866 289.401L50.159 274.56L63.5155 259.719L81.3241 244.878L102.101 231.521C106.306 229.295 116.645 224.1 124.362 221.132C132.079 218.164 151.817 213.959 160.721 212.227H189.66C196.784 212.227 206.479 216.185 210.437 218.164Z" fill="black"/>
</g>
<defs>
<filter id="filter0_d_1_10" x="0" y="0" width="860" height="615" filterUnits="userSpaceOnUse" color-interpolation-filters="sRGB">
<feFlood flood-opacity="0" result="BackgroundImageFix"/>
<feColorMatrix in="SourceAlpha" type="matrix" values="0 0 0 0 0 0 0 0 0 0 0 0 0 0 0 0 0 0 127 0" result="hardAlpha"/>
<feOffset dy="4"/>
<feGaussianBlur stdDeviation="2"/>
<feComposite in2="hardAlpha" operator="out"/>
<feColorMatrix type="matrix" values="0 0 0 0 0 0 0 0 0 0 0 0 0 0 0 0 0 0 0.25 0"/>
<feBlend mode="normal" in2="BackgroundImageFix" result="effect1_dropShadow_1_10"/>
<feBlend mode="normal" in="SourceGraphic" in2="effect1_dropShadow_1_10" result="shape"/>
</filter>
</defs>
</svg>
