<svg width="574" height="408" viewBox="0 0 574 408" fill="none" xmlns="http://www.w3.org/2000/svg">
<path fill-rule="evenodd" clip-rule="evenodd" d="M267.166 1.62764C239.73 7.32871 213.049 20.5533 194.604 37.5916C166.459 63.5905 148.143 99.4527 143.311 138.018C142.203 146.857 142.874 146.421 133.537 144.369C123.416 142.144 106.549 141.957 97.1288 143.963C48.4567 154.332 10.1443 196.455 1.3022 249.322C-0.806109 261.924 -0.279282 288.042 2.33986 300.792C12.2736 349.16 43.7863 385.838 88.1457 400.664C108.861 407.588 97.5786 407.241 290.878 406.912C290.878 406.912 455.471 409.435 465.193 406.616C474.915 403.797 475.873 403.406 475.873 403.406C513.5 392.099 541.629 369.619 558.481 337.388C576.404 303.108 578.459 261.52 563.915 227.394C546.644 186.871 510.584 157.265 467.192 147.982C457.027 145.807 435.886 145.012 425.425 146.412C415.266 147.773 402.416 151.317 392.115 155.601C368.042 165.612 341.281 192.019 326.285 220.559C305.602 259.923 281.284 281.611 242.687 295.118C228.099 300.223 197.58 306.245 186.285 306.248C182.802 306.249 183.576 305.814 192.283 302.87C222.869 292.528 246.423 278.044 265.638 257.762C275.504 247.349 284.289 234.741 298.688 210.336C303.736 201.777 310.835 190.768 314.461 185.87C323.975 173.022 345.22 152.271 356.676 144.636C380.343 128.862 399.864 122.3 428.161 120.607C436.863 120.087 444.403 119.241 444.917 118.728C446.25 117.396 440.685 101.325 434.233 87.8788C415.551 48.9429 383.883 21.0816 342.733 7.38064C325.6 1.67557 318.399 0.55213 296.248 0.124724C279.458 -0.198826 274.799 0.0418397 267.166 1.62764Z" fill="white"/>
</svg>
