<svg xmlns="http://www.w3.org/2000/svg" style="display:none">
<!-- вітер стрілка -->
<symbol id="wind" viewBox="0 0 54 100">
<path d="M25.0941 0.428394C24.5023 -0.151299 23.5526 -0.141472 22.9729 0.450342L13.5262 10.0945C12.9465 10.6864 12.9563 11.6361 13.5482 12.2158C14.14 12.7954 15.0897 12.7856 15.6694 12.1938L24.0664 3.62118L32.639 12.0182C33.2308 12.5979 34.1805 12.5881 34.7602 11.9963C35.3399 11.4044 35.3301 10.4548 34.7383 9.87506L25.0941 0.428394ZM24.9682 90.7812L26.4682 90.7657L25.5444 1.48445L24.0445 1.49997L22.5445 1.51549L23.4683 90.7968L24.9682 90.7812Z" fill="currentColor"/>
<path d="M23.2744 97.4712C20.0736 96.6135 18.1741 93.3235 19.0318 90.1227C19.8894 86.9219 23.1794 85.0224 26.3802 85.8801C29.581 86.7377 31.4805 90.0277 30.6229 93.2285C29.7652 96.4293 26.4752 98.3288 23.2744 97.4712Z" fill="currentColor"/>
</symbol>
<!-- ясно -->
<symbol id="clear" viewBox="0 0 48 46">
<path d="M35.0118 23.2805C35.0118 29.3219 30.0816 34.2195 24 34.2195C17.9184 34.2195 12.9882 29.3219 12.9882 23.2805C12.9882 17.239 17.9184 12.3415 24 12.3415C30.0816 12.3415 35.0118 17.239 35.0118 23.2805Z" fill="#F9D71C"/>
<path d="M0 23.561C0 22.9413 0.505655 22.439 1.12941 22.439H7.90588C8.52964 22.439 9.03529 22.9413 9.03529 23.561C9.03529 24.1806 8.52964 24.6829 7.90588 24.6829H1.12941C0.505655 24.6829 0 24.1806 0 23.561Z" fill="#F9D71C"/>
<path d="M7.01038 40.2376C6.56932 39.7995 6.56932 39.0891 7.01038 38.6509L11.8021 33.8909C12.2431 33.4528 12.9582 33.4528 13.3993 33.8909C13.8404 34.3291 13.8404 35.0394 13.3993 35.4776L8.60761 40.2376C8.16655 40.6758 7.45144 40.6758 7.01038 40.2376Z" fill="#F9D71C"/>
<path d="M23.7176 46C23.0939 46 22.5882 45.4977 22.5882 44.878V38.1463C22.5882 37.5267 23.0939 37.0244 23.7176 37.0244C24.3414 37.0244 24.8471 37.5267 24.8471 38.1463V44.878C24.8471 45.4977 24.3414 46 23.7176 46Z" fill="#F9D71C"/>
<path d="M40.5051 40.2376C40.064 40.6757 39.3489 40.6757 38.9078 40.2376L34.1161 35.4776C33.6751 35.0394 33.6751 34.329 34.1161 33.8909C34.5572 33.4527 35.2723 33.4527 35.7134 33.8909L40.5051 38.6509C40.9461 39.0891 40.9461 39.7994 40.5051 40.2376Z" fill="#F9D71C"/>
<path d="M48 23.561C48 24.1806 47.4943 24.6829 46.8706 24.6829H40.0941C39.4704 24.6829 38.9647 24.1806 38.9647 23.561C38.9647 22.9413 39.4704 22.439 40.0941 22.439H46.8706C47.4943 22.439 48 22.9413 48 23.561Z" fill="#F9D71C"/>
<path d="M40.5052 6.96404C40.9462 7.40219 40.9462 8.11257 40.5052 8.55072L35.7135 13.3108C35.2724 13.7489 34.5573 13.7489 34.1162 13.3108C33.6752 12.8726 33.6752 12.1622 34.1162 11.7241L38.9079 6.96404C39.349 6.52589 40.0641 6.52589 40.5052 6.96404Z" fill="#F9D71C"/>
<path d="M23.7176 0C24.3414 2.70852e-08 24.8471 0.502315 24.8471 1.12195V7.85366C24.8471 8.4733 24.3414 8.97561 23.7176 8.97561C23.0939 8.97561 22.5882 8.4733 22.5882 7.85366V1.12195C22.5882 0.502315 23.0939 -2.70852e-08 23.7176 0Z" fill="#F9D71C"/>
<path d="M7.01049 6.96407C7.45155 6.52592 8.16665 6.52592 8.60771 6.96407L13.3994 11.7241C13.8405 12.1623 13.8405 12.8726 13.3994 13.3108C12.9583 13.7489 12.2432 13.7489 11.8022 13.3108L7.01049 8.55075C6.56942 8.1126 6.56942 7.40222 7.01049 6.96407Z" fill="#F9D71C"/>
</symbol>
<!-- мінлива хмарність -->
<symbol id="partly-cloudy" viewBox="0 0 74 74">
<path d="M14.904 4.27801C14.766 4.64601 14.72 6.07201 14.812 7.40601C14.904 9.24601 15.134 9.89001 15.64 9.89001C16.56 9.89001 16.652 4.09401 15.778 3.81801C15.456 3.68001 15.088 3.91001 14.904 4.27801Z" fill="currentColor"/>
<path d="M4.69213 8.372C4.27813 8.786 4.55413 9.338 6.07213 10.902C7.13013 12.006 8.28013 12.88 8.60213 12.88C9.70613 12.88 9.20013 11.684 7.22213 9.752C5.65813 8.234 5.10613 7.958 4.69213 8.372Z" fill="currentColor"/>
<path d="M24.012 9.798C22.08 11.776 21.574 12.88 22.678 12.88C23.552 12.88 27.278 8.878 26.956 8.326C26.45 7.498 26.082 7.728 24.012 9.798Z" fill="currentColor"/>
<path d="M12.6502 12.604C8.14222 14.536 6.94622 20.562 10.2582 24.242L11.7762 25.852L13.6162 24.61C15.1342 23.644 15.5942 23 16.0542 21.114C16.4682 19.596 17.2962 18.124 18.7222 16.56C19.8722 15.318 20.6082 14.03 20.4702 13.754C19.9642 12.972 17.2042 11.96 15.5482 11.96C14.7202 12.006 13.3862 12.282 12.6502 12.604Z" fill="currentColor"/>
<path d="M23.5521 15.226C20.4701 16.146 17.4801 20.332 17.4801 23.69C17.4801 24.288 16.8821 24.932 15.7781 25.53C12.1901 27.462 10.9481 31.464 13.0181 34.546C14.9961 37.536 15.9161 37.72 28.2901 37.72C38.8701 37.72 39.4681 37.674 41.4001 36.662C47.4721 33.626 47.4721 25.254 41.4001 22.172C40.2501 21.62 38.5021 21.16 37.4441 21.16C35.6961 21.16 35.4201 21.022 34.6381 19.412C32.7521 15.87 27.7381 13.938 23.5521 15.226Z" fill="currentColor"/>
<path d="M0.230051 18.86C-0.367949 19.826 0.782051 20.286 3.49605 20.148C5.52005 20.056 6.21005 19.826 6.21005 19.32C6.21005 18.446 0.736051 18.032 0.230051 18.86Z" fill="currentColor"/>
<path d="M6.07213 27.738C4.55413 29.302 4.27813 29.854 4.69213 30.268C5.10613 30.682 5.65813 30.406 7.22213 28.888C9.20013 26.956 9.70613 25.76 8.60213 25.76C8.28013 25.76 7.13013 26.634 6.07213 27.738Z" fill="currentColor"/>
</symbol>
<!-- хмарно -->
<symbol id="cloudy" viewBox="0 0 74 74">
<path d="M26.7841 10.044C24.9481 10.638 23.2741 11.718 21.2221 13.824C18.4141 16.632 18.1981 16.74 16.3081 16.308C12.1501 15.39 7.99209 17.82 7.23609 21.6C7.02009 22.626 6.37209 23.328 5.29209 23.814C3.07809 24.732 0.648091 28.188 0.216091 31.158C-0.485909 35.802 1.94409 40.284 6.21009 42.174C8.15409 43.092 10.0981 43.2 27.1621 43.2C42.8761 43.2 46.2781 43.038 47.8981 42.39C50.5981 41.256 51.7861 40.122 52.9741 37.53C55.4041 32.238 52.9201 26.568 47.2501 24.516C45.8461 24.03 45.5761 23.598 45.3061 21.492C44.4961 16.146 40.5541 11.502 35.5861 10.044C32.1301 9.01801 30.2401 9.01801 26.7841 10.044Z" fill="currentColor"/>
</symbol>
<!-- туман -->
<symbol id="fog" viewBox="0 0 52 30">
<path d="M0.323853 0.37344C-0.000736039 0.698029 -0.0311663 0.769033 0.0195508 1.16463C0.0905547 1.69208 0.476005 2.05725 2.0178 3.08173C3.90448 4.32937 5.51728 4.9887 6.71421 4.9887C7.76912 4.9887 8.67189 4.54238 10.2847 3.2136C11.1773 2.47313 11.9381 2.10796 12.3945 2.19926C12.7901 2.2804 13.49 2.73686 14.4942 3.55847C14.9101 3.90335 15.5998 4.3598 16.0157 4.56267C16.7156 4.90755 16.8272 4.93798 17.6894 4.93798C18.5211 4.93798 18.6733 4.90755 19.2616 4.61339C19.6268 4.43081 20.4281 3.90335 21.0469 3.43675C22.3655 2.42241 22.7307 2.21954 23.2176 2.21954C23.7044 2.21954 24.2116 2.50356 25.3477 3.41647C26.6663 4.47138 27.5589 4.90755 28.5327 4.96841C29.7601 5.04956 30.4295 4.73511 32.4785 3.13245C34.1724 1.80366 34.4666 1.84424 36.8604 3.73091C37.256 4.03521 37.8646 4.43081 38.2298 4.61339C38.8181 4.90755 38.9703 4.93798 39.802 4.93798C40.9178 4.93798 41.3438 4.7554 42.7943 3.65991C44.8636 2.09782 45.1172 1.99639 46.2025 2.37169C47.0546 2.676 47.9776 3.20345 49.3977 4.2178C50.7062 5.15099 51.0105 5.21185 51.5887 4.63368C51.9133 4.30909 51.9437 4.23808 51.893 3.84249C51.822 3.31503 51.3351 2.83829 49.7933 1.81381C47.8153 0.495161 46.4155 -0.0322969 45.1375 0.0387071C44.113 0.0995676 43.5551 0.363296 42.0336 1.5095C40.6135 2.57456 40.2484 2.78757 39.7513 2.78757C39.2644 2.78757 38.9804 2.62528 37.6719 1.60079C37.0633 1.11391 36.262 0.576308 35.8968 0.393727C35.2984 0.0995676 35.1564 0.0691373 34.2739 0.0691373C33.3914 0.0691373 33.2494 0.0995676 32.6509 0.393727C32.2858 0.576308 31.4946 1.11391 30.8758 1.60079C29.5369 2.64557 29.2833 2.78757 28.7153 2.77743C28.2183 2.77743 27.7212 2.5137 26.7677 1.7428C25.652 0.840037 24.6681 0.241575 24.0899 0.109711C22.7712 -0.184448 21.5946 0.221289 19.9209 1.53993C17.8111 3.2136 17.5474 3.2136 15.4071 1.48922C14.1595 0.495161 13.3581 0.0894242 12.4858 0.0387071C11.1976 -0.0424403 10.4571 0.272006 8.61103 1.7428C7.52568 2.60499 7.15037 2.79772 6.58234 2.78757C5.78101 2.77743 4.13778 1.94567 2.33225 0.637169C1.26719 -0.133731 0.881741 -0.184448 0.323853 0.37344Z" fill="currentColor"/>
<path d="M0.603056 8.09798C0.471191 8.1487 0.278466 8.34142 0.166889 8.524C-0.117127 8.97031 -0.0359796 9.44705 0.390044 9.89336C1.12037 10.6541 3.98081 12.3684 5.12702 12.7234C6.94269 13.2914 7.98746 13.0277 9.87414 11.5163C11.1928 10.4614 11.5884 10.2281 12.1057 10.2281C12.6839 10.2281 13.0896 10.4513 14.317 11.4453C15.9196 12.7437 16.9847 13.1595 18.212 12.9567C18.9931 12.835 19.622 12.5002 20.9203 11.5062C22.239 10.5121 22.7461 10.2281 23.2432 10.2281C23.7301 10.2281 23.9329 10.3498 25.3733 11.4453C26.7629 12.4901 27.3817 12.835 28.1729 12.9567C29.4712 13.1697 30.4247 12.7741 32.3722 11.1917C33.275 10.4614 33.7315 10.2281 34.2488 10.2281C34.7864 10.2281 35.1211 10.4005 36.2166 11.2627C38.1033 12.7538 38.6916 13.0175 39.9494 12.9567C40.913 12.906 41.6129 12.5611 43.1243 11.4149C43.743 10.9483 44.3922 10.4918 44.5646 10.3904C45.4978 9.91365 46.8672 10.431 49.403 12.2466C50.2348 12.835 50.4884 12.9668 50.8028 12.9668C51.5332 12.9668 51.9896 12.4191 51.8578 11.709C51.7766 11.2729 51.3506 10.8976 49.8189 9.87308C47.8004 8.524 46.2484 7.92554 45.0312 8.02698C44.1488 8.09798 43.3677 8.49357 41.8259 9.64992C40.3247 10.786 39.9291 10.9381 39.2596 10.6846C39.0162 10.5933 38.3264 10.1267 37.728 9.66007C34.8574 7.41837 33.4677 7.43866 30.6479 9.77164C29.9175 10.3701 29.0858 10.8367 28.7206 10.8367C28.3352 10.8367 27.5034 10.36 26.5398 9.57892C26.0123 9.1529 25.2313 8.63558 24.8154 8.42257C24.1155 8.07769 24.0039 8.04726 23.1924 8.05741C21.9854 8.06755 21.4478 8.32113 19.6423 9.75136C19.2264 10.0861 18.6381 10.4715 18.3439 10.6034C17.4716 11.0091 17.0658 10.857 15.382 9.49777C14.9053 9.11232 14.1749 8.62544 13.7692 8.42257C13.0693 8.07769 12.9375 8.04726 12.1463 8.04726C11.3754 8.04726 11.1928 8.08784 10.6146 8.36171C10.2494 8.53415 9.3974 9.12246 8.70765 9.64992C7.99761 10.2078 7.28757 10.6846 7.05427 10.7454C6.17179 11.0193 4.79229 10.3904 1.95213 8.41243C1.35367 7.99655 1.03922 7.92554 0.603056 8.09798Z" fill="currentColor"/>
<path d="M11.4637 16.4176C10.7131 16.5799 10.0234 16.9754 8.89743 17.8681C7.4875 19.0041 7.21362 19.1461 6.51373 19.0954C5.62111 19.0346 4.1706 18.2839 2.24335 16.9146C1.36087 16.2755 0.8537 16.1944 0.387103 16.6306C-0.191072 17.158 -0.120068 17.7971 0.589972 18.3854C1.36087 19.0244 2.87224 19.9982 3.82572 20.4749C5.1748 21.1444 5.70225 21.2965 6.70645 21.2965C7.49764 21.2965 7.6295 21.2661 8.3294 20.9212C8.73514 20.7082 9.53647 20.1706 10.0944 19.7142C11.1493 18.852 11.7477 18.5071 12.1738 18.5071C12.5896 18.5071 13.1982 18.8418 14.0706 19.5519C15.8558 21.0125 16.7586 21.4183 17.9555 21.3168C18.8887 21.2357 19.5277 20.9212 21.0188 19.8055C21.7289 19.2679 22.5099 18.7607 22.7533 18.6593C23.4127 18.4057 23.8387 18.568 25.0255 19.491C27.0339 21.0632 27.7946 21.4081 29.022 21.327C29.9552 21.256 30.6754 20.8908 32.1056 19.7649C33.4242 18.7303 33.9415 18.4564 34.469 18.5578C34.9964 18.6593 35.2297 18.7911 36.4672 19.7649C37.086 20.2518 37.8772 20.7894 38.2423 20.972C38.8307 21.256 38.993 21.2965 39.774 21.2965C40.5652 21.2965 40.6971 21.2661 41.3969 20.9212C41.8027 20.7184 42.5837 20.2011 43.1112 19.775C44.1661 18.9433 44.9269 18.5071 45.3427 18.5071C46.1846 18.5071 47.6757 19.2983 50.0594 21.0024C50.4854 21.3067 50.6275 21.3574 50.952 21.3168C51.3984 21.256 51.5809 21.1241 51.8041 20.7082C52.007 20.3126 51.9055 19.8055 51.5404 19.4504C50.7492 18.6491 48.1829 17.087 47.0063 16.6711C45.0993 16.0118 44.0748 16.2755 41.8433 17.9999C40.6362 18.9331 40.3015 19.1157 39.8146 19.1157C39.3378 19.1157 38.8408 18.852 37.9279 18.1217C35.9702 16.5799 34.9964 16.1741 33.6879 16.3871C32.917 16.5088 32.2577 16.874 30.9797 17.8681C29.7016 18.8723 29.2553 19.1157 28.7582 19.1157C28.2511 19.1157 27.7033 18.8114 26.5267 17.8782C25.9688 17.442 25.2385 16.945 24.8936 16.7726C23.3315 16.0017 21.952 16.2857 20.0653 17.7768C17.8541 19.5316 17.5092 19.5417 15.5008 17.8884C13.888 16.5697 12.7215 16.1335 11.4637 16.4176Z" fill="currentColor"/>
</symbol>
<!-- мряка -->
<symbol id="drizzle" viewBox="0 0 74 74">
<path d="M17.4962 2.86198C17.3342 3.29398 17.2802 4.96798 17.3882 6.53398C17.4962 8.69398 17.7662 9.44998 18.3602 9.44998C19.4402 9.44998 19.5482 2.64598 18.5222 2.32198C18.1442 2.15998 17.7122 2.42998 17.4962 2.86198Z" fill="currentColor"/>
<path d="M5.50796 7.66799C5.02196 8.15399 5.34596 8.80199 7.12796 10.638C8.36996 11.934 9.71996 12.96 10.098 12.96C11.394 12.96 10.8 11.556 8.47796 9.28799C6.64196 7.50599 5.99396 7.18199 5.50796 7.66799Z" fill="currentColor"/>
<path d="M28.1879 9.34199C26.9459 10.638 25.9199 11.934 25.9199 12.312C25.9199 13.554 27.3239 12.906 29.5919 10.638C31.4819 8.69399 31.7519 8.15399 31.1579 7.66799C30.6179 7.18199 29.9699 7.55999 28.1879 9.34199Z" fill="currentColor"/>
<path d="M14.8503 12.636C9.55832 14.904 8.15432 21.978 12.0423 26.298L13.8243 28.188L15.9843 26.73C17.7663 25.596 18.3063 24.84 18.8463 22.626C19.3323 20.844 20.3043 19.116 21.9783 17.28C23.3283 15.822 24.1923 14.31 24.0303 13.986C23.4363 13.068 20.1963 11.88 18.2523 11.88C17.2803 11.934 15.7143 12.258 14.8503 12.636Z" fill="currentColor"/>
<path d="M27.8102 15.768C23.8142 17.226 21.2762 20.304 20.7362 24.408C20.4662 26.46 20.1422 26.946 18.4682 27.864C14.3102 30.078 12.8522 34.776 15.2822 38.394C17.6042 41.904 18.6842 42.12 33.2102 42.12C45.6302 42.12 46.3322 42.066 48.6002 40.878C53.8922 38.232 55.5122 31.914 52.2182 26.946C50.7062 24.624 46.9262 22.68 43.9562 22.68C41.9042 22.68 41.5802 22.518 40.6622 20.628C38.4482 16.47 32.2382 14.094 27.8102 15.768Z" fill="currentColor"/>
<path d="M0.270082 19.98C-0.431919 21.114 0.918082 21.654 4.10408 21.492C6.48008 21.384 7.29008 21.114 7.29008 20.52C7.29008 19.494 0.864082 19.008 0.270082 19.98Z" fill="currentColor"/>
<path d="M7.12796 30.402C5.34596 32.238 5.02196 32.886 5.50796 33.372C5.99396 33.858 6.64196 33.534 8.47796 31.752C10.8 29.484 11.394 28.08 10.098 28.08C9.71996 28.08 8.36996 29.106 7.12796 30.402Z" fill="currentColor"/>
<path d="M21.8703 45.9C20.6283 47.196 20.4663 47.682 20.9523 48.168C21.4923 48.708 21.9783 48.492 23.2743 47.142C24.2463 46.224 24.7863 45.198 24.6243 44.874C24.0303 43.956 23.5443 44.118 21.8703 45.9Z" fill="currentColor"/>
<path d="M42.3903 45.9C41.1483 47.196 40.9863 47.682 41.4723 48.168C42.0123 48.708 42.4983 48.492 43.7943 47.142C44.7663 46.224 45.3063 45.198 45.1443 44.874C44.5503 43.956 44.0643 44.118 42.3903 45.9Z" fill="currentColor"/>
<path d="M31.59 50.22C30.348 51.516 30.186 52.002 30.672 52.488C31.212 53.028 31.698 52.812 32.994 51.462C33.966 50.544 34.506 49.518 34.344 49.194C33.75 48.276 33.264 48.438 31.59 50.22Z" fill="currentColor"/>
</symbol>
<!-- дощ -->
<symbol id="rain" viewBox="0 0 74 74">
<path d="M27.0099 8.80596C21.9779 11.1 17.7599 17.02 17.7599 21.682C17.7599 23.088 17.1679 23.532 14.5039 24.272C8.65786 25.826 5.03186 31.82 6.21586 38.11C6.88186 41.588 10.5819 45.658 13.9119 46.694C15.6879 47.212 23.9759 47.36 37.4439 47.212L58.2379 46.99L61.1979 44.992C65.8599 41.958 67.7099 38.332 67.7099 32.486C67.7099 28.49 67.3399 27.158 65.7119 24.642C62.6039 19.98 59.0519 18.13 53.1319 18.13C48.3959 18.13 48.0999 18.056 47.2859 16.132C46.8419 15.022 45.2139 12.95 43.6599 11.544C38.9979 7.32596 32.4859 6.28996 27.0099 8.80596Z" fill="currentColor"/>
<path d="M34.4098 52.54C32.7078 54.316 32.4858 54.982 33.1518 55.648C33.8918 56.388 34.5578 56.092 36.3338 54.242C37.6658 52.984 38.4058 51.578 38.1838 51.134C37.3698 49.876 36.7038 50.098 34.4098 52.54Z" fill="currentColor"/>
<path d="M18.13 54.02C16.428 55.796 16.206 56.462 16.872 57.128C17.612 57.868 18.278 57.572 20.054 55.722C21.386 54.464 22.126 53.058 21.904 52.614C21.09 51.356 20.424 51.578 18.13 54.02Z" fill="currentColor"/>
<path d="M47.7297 54.02C46.0277 55.796 45.8057 56.462 46.4717 57.128C47.2117 57.868 47.8777 57.572 49.6537 55.722C50.9857 54.464 51.7257 53.058 51.5037 52.614C50.6897 51.356 50.0237 51.578 47.7297 54.02Z" fill="currentColor"/>
<path d="M27.0099 59.94C25.3079 61.716 25.0859 62.382 25.7519 63.048C26.4919 63.788 27.1579 63.492 28.9339 61.642C30.2659 60.384 31.0059 58.978 30.7839 58.534C29.9699 57.276 29.3039 57.498 27.0099 59.94Z" fill="currentColor"/>
<path d="M10.7297 61.42C9.02766 63.196 8.80566 63.862 9.47166 64.528C10.2117 65.268 10.8777 64.972 12.6537 63.122C13.9857 61.864 14.7257 60.458 14.5037 60.014C13.6897 58.756 13.0237 58.978 10.7297 61.42Z" fill="currentColor"/>
<path d="M40.3298 61.42C38.6278 63.196 38.4058 63.862 39.0718 64.528C39.8118 65.268 40.4778 64.972 42.2538 63.122C43.5858 61.864 44.3258 60.458 44.1038 60.014C43.2898 58.756 42.6238 58.978 40.3298 61.42Z" fill="currentColor"/>
</symbol>
<!-- сніг -->
<symbol id="snow" viewBox="0 0 74 74">
<path d="M24.0902 9.17399C19.6022 11.22 15.8402 16.5 15.8402 20.658C15.8402 21.912 15.3122 22.308 12.9362 22.968C7.72222 24.354 4.48822 29.7 5.54422 35.31C6.13822 38.412 9.43822 42.042 12.4082 42.966C13.9922 43.428 21.3842 43.56 33.3962 43.428L51.9422 43.23L54.5822 41.448C58.7402 38.742 60.3902 35.508 60.3902 30.294C60.3902 26.73 60.0602 25.542 58.6082 23.298C55.8362 19.14 52.6682 17.49 47.3882 17.49C43.1642 17.49 42.9002 17.424 42.1742 15.708C41.7782 14.718 40.3262 12.87 38.9402 11.616C34.7822 7.85398 28.9742 6.92999 24.0902 9.17399Z" fill="currentColor"/>
<path d="M9.57002 50.82C7.06202 53.394 6.46802 54.252 7.12802 54.912C7.78802 55.572 8.64602 54.978 11.22 52.47C13.068 50.688 14.454 48.906 14.322 48.576C13.86 47.124 12.672 47.652 9.57002 50.82Z" fill="currentColor"/>
<path d="M28.1823 49.236C27.9183 49.5 27.7203 50.688 27.7203 51.942C27.7203 54.384 27.3243 54.582 25.2123 53.064C24.4203 52.536 23.4303 52.272 23.1003 52.47C21.9123 53.196 22.3743 54.516 24.0903 55.44C25.0143 55.902 25.7403 56.496 25.7403 56.76C25.7403 57.024 25.0143 57.618 24.0903 58.08C22.3743 59.004 21.9123 60.324 23.1003 61.05C23.4303 61.248 24.4203 60.984 25.2123 60.456C27.3243 58.938 27.5883 59.136 27.8523 61.842C27.9843 63.558 28.3803 64.35 29.0403 64.35C29.7003 64.35 30.0963 63.558 30.2283 61.842C30.4923 59.136 30.7563 58.938 32.8683 60.456C33.6603 60.984 34.6503 61.248 34.9803 61.05C36.1683 60.324 35.7063 59.004 33.9903 58.08C33.0663 57.618 32.3403 57.024 32.3403 56.76C32.3403 56.496 33.0663 55.902 33.9903 55.44C35.7063 54.516 36.1683 53.196 34.9803 52.47C34.6503 52.272 33.6603 52.536 32.8683 53.064C30.7563 54.582 30.4923 54.384 30.2283 51.678C30.0303 49.368 29.1063 48.312 28.1823 49.236Z" fill="currentColor"/>
<path d="M47.8503 52.14C45.3423 54.714 44.7483 55.572 45.4083 56.232C46.0683 56.892 46.9263 56.298 49.5003 53.79C51.3483 52.008 52.7343 50.226 52.6023 49.896C52.1403 48.444 50.9523 48.972 47.8503 52.14Z" fill="currentColor"/>
</symbol>
<!-- снігопад -->
<symbol id="snowfall" viewBox="0 0 74 74">
<path d="M22.2652 7.25898C18.1172 9.14998 14.6402 14.03 14.6402 17.873C14.6402 19.032 14.1522 19.398 11.9562 20.008C5.36821 21.777 2.74521 30.195 7.13721 35.441C9.63821 38.43 11.8952 39.04 19.7642 39.04C25.7422 39.04 26.7792 38.918 26.4742 38.125C26.2302 37.637 26.5352 37.088 27.0842 36.844C28.0602 36.478 28.4872 32.94 27.5722 32.94C26.5962 32.94 25.1322 34.465 24.8882 35.685C24.7052 36.417 24.2782 36.783 23.7292 36.661C23.2412 36.539 22.2652 36.478 21.5332 36.478C19.9472 36.6 19.0932 35.563 20.0692 34.587C20.4352 34.221 20.7402 33.428 20.7402 32.879C20.7402 31.659 22.2042 30.988 23.0582 31.842C23.6072 32.391 26.2302 31.293 26.2302 30.5C26.2302 29.707 23.6072 28.609 23.0582 29.158C22.2042 30.012 20.7402 29.341 20.7402 28.121C20.7402 27.572 20.4352 26.779 20.0692 26.413C19.0932 25.437 19.9472 24.4 21.5332 24.522C22.2652 24.522 23.2412 24.461 23.7292 24.339C24.2782 24.217 24.7052 24.583 24.8882 25.315C25.1322 26.535 26.5962 28.06 27.5722 28.06C28.4872 28.06 28.0602 24.827 27.0232 24.034C26.0472 23.241 26.0472 23.119 26.9012 22.387C27.3892 22.021 27.9992 21.167 28.2432 20.557C28.4262 20.008 28.9142 19.52 29.2802 19.52C29.6462 19.52 30.1342 20.008 30.3172 20.557C30.5612 21.167 31.1712 22.021 31.6592 22.387C32.5132 23.119 32.5132 23.241 31.5982 24.034C30.6222 24.766 30.0122 28.06 30.8662 28.06C31.9642 28.06 33.5502 26.657 33.5502 25.62C33.5502 24.705 33.9772 24.461 35.9902 24.522C38.6132 24.522 39.5892 25.315 38.4912 26.413C38.1252 26.779 37.8202 27.572 37.8202 28.121C37.8202 29.341 36.3562 30.012 35.5022 29.158C34.9532 28.609 32.3302 29.707 32.3302 30.5C32.3302 31.293 34.9532 32.391 35.5022 31.842C36.3562 30.988 37.8202 31.659 37.8202 32.879C37.8202 33.428 38.1252 34.221 38.4912 34.587C39.4672 35.563 38.6132 36.6 37.0272 36.478C36.2952 36.478 35.3192 36.539 34.8312 36.661C34.2822 36.783 33.8552 36.417 33.6722 35.685C33.4282 34.465 31.9642 32.94 30.9882 32.94C30.0732 32.94 30.5002 36.478 31.4762 36.844C32.0862 37.088 32.3302 37.576 32.0862 38.186C31.7812 39.04 32.6352 39.162 39.8332 38.918C47.4582 38.735 48.1292 38.613 50.4472 37.088C54.2902 34.587 55.8152 31.598 55.8152 26.779C55.8152 23.485 55.5102 22.387 54.1682 20.313C51.6062 16.47 48.6782 14.945 43.7982 14.945C39.8942 14.945 39.6502 14.884 38.9792 13.298C38.6132 12.383 37.2712 10.675 35.9902 9.51598C32.1472 6.03897 26.7792 5.18497 22.2652 7.25898Z" fill="currentColor"/>
<path d="M28.1824 40.077C28.3044 40.687 28.7924 41.175 29.2804 41.175C29.7684 41.175 30.2564 40.687 30.3784 40.077C30.5004 39.345 30.1954 39.04 29.2804 39.04C28.3654 39.04 28.0604 39.345 28.1824 40.077Z" fill="currentColor"/>
<path d="M47.8853 42.09C47.7023 42.395 47.7023 43.005 47.9463 43.432C48.1903 43.798 47.8853 44.469 47.2753 44.896C45.8723 45.933 46.5433 47.824 48.1293 47.275C48.9223 47.031 49.5323 47.275 49.8983 47.946C50.6913 49.41 52.6433 48.617 52.1553 47.031C51.9113 46.238 52.1553 45.628 52.8263 45.262C54.2903 44.408 53.4973 42.517 51.8503 43.005C51.0573 43.249 50.5083 43.066 50.2643 42.456C49.8373 41.358 48.4343 41.175 47.8853 42.09Z" fill="currentColor"/>
<path d="M8.84528 43.31C8.66228 43.615 8.66228 44.225 8.90628 44.652C9.15028 45.018 8.84528 45.689 8.23528 46.116C6.83228 47.153 7.50328 49.044 9.08928 48.495C9.88228 48.251 10.4923 48.495 10.8583 49.166C11.6513 50.63 13.6033 49.837 13.1153 48.251C12.8713 47.458 13.1153 46.848 13.7863 46.482C15.2503 45.628 14.4573 43.737 12.8103 44.225C12.0173 44.469 11.4683 44.286 11.2243 43.676C10.7973 42.578 9.39428 42.395 8.84528 43.31Z" fill="currentColor"/>
<path d="M29.585 48.19C29.402 48.495 29.402 49.105 29.646 49.532C29.89 49.898 29.585 50.569 28.975 50.996C27.572 52.033 28.243 53.924 29.829 53.375C30.622 53.131 31.232 53.375 31.598 54.046C32.391 55.51 34.343 54.717 33.855 53.131C33.611 52.338 33.855 51.728 34.526 51.362C35.99 50.508 35.197 48.617 33.55 49.105C32.757 49.349 32.208 49.166 31.964 48.556C31.537 47.458 30.134 47.275 29.585 48.19Z" fill="currentColor"/>
<path d="M17.3853 53.07C17.2023 53.375 17.2023 53.985 17.4463 54.412C17.6903 54.778 17.3853 55.449 16.7753 55.876C15.3723 56.913 16.0433 58.804 17.6293 58.255C18.4223 58.011 19.0323 58.255 19.3983 58.926C20.1913 60.39 22.1433 59.597 21.6553 58.011C21.4113 57.218 21.6553 56.608 22.3263 56.242C23.7903 55.388 22.9973 53.497 21.3503 53.985C20.5573 54.229 20.0083 54.046 19.7643 53.436C19.3373 52.338 17.9343 52.155 17.3853 53.07Z" fill="currentColor"/>
<path d="M41.7852 53.07C41.6022 53.375 41.6022 53.985 41.8462 54.412C42.0902 54.778 41.7852 55.449 41.1752 55.876C39.7722 56.913 40.4432 58.804 42.0292 58.255C42.8222 58.011 43.4322 58.255 43.7982 58.926C44.5912 60.39 46.5432 59.597 46.0552 58.011C45.8112 57.218 46.0552 56.608 46.7262 56.242C48.1902 55.388 47.3972 53.497 45.7502 53.985C44.9572 54.229 44.4082 54.046 44.1642 53.436C43.7372 52.338 42.3342 52.155 41.7852 53.07Z" fill="currentColor"/>
</symbol>
<!-- гроза -->
<symbol id="thunderstorm" viewBox="0 0 74 74">
<path d="M19.7099 5.346C16.0379 7.02 12.9599 11.34 12.9599 14.742C12.9599 15.768 12.5279 16.092 10.5839 16.632C4.75187 18.144 2.42987 25.65 6.26387 30.24C8.47787 32.832 9.55787 33.156 16.3619 33.48L22.6799 33.75L21.0599 35.748L19.3859 37.746L22.0859 37.908L24.7319 38.07L22.3019 41.796C21.0059 43.794 19.9799 45.576 20.0879 45.63C20.1959 45.738 22.6799 43.524 25.6499 40.77L31.0499 35.694L28.4039 35.64C25.8119 35.64 25.7579 35.64 26.7299 34.56C27.7019 33.48 27.6479 33.48 25.4879 33.48C24.2459 33.48 23.2199 33.318 23.2199 33.156C23.2199 32.994 24.0839 31.752 25.1639 30.456C27.0539 28.188 27.2159 28.08 30.1319 28.08H33.1559L30.5099 30.834L27.8099 33.588L35.1539 33.372C42.0119 33.21 42.6059 33.102 44.6579 31.752C48.0599 29.538 49.4099 26.892 49.4099 22.626C49.4099 19.71 49.1399 18.738 47.9519 16.902C45.6839 13.5 43.0919 12.15 38.7719 12.15C35.3159 12.15 35.0999 12.096 34.5059 10.692C34.1819 9.882 32.9939 8.37 31.8599 7.344C28.4579 4.266 23.7059 3.51 19.7099 5.346Z" fill="currentColor"/>
<path d="M9.98981 39.42C7.93781 41.526 7.45181 42.228 7.99181 42.768C8.53181 43.308 9.23381 42.822 11.3398 40.77C12.8518 39.312 13.9858 37.854 13.8778 37.584C13.4998 36.396 12.5278 36.828 9.98981 39.42Z" fill="currentColor"/>
<path d="M35.9097 40.5C33.8577 42.606 33.3717 43.308 33.9117 43.848C34.4517 44.388 35.1537 43.902 37.2597 41.85C38.7717 40.392 39.9057 38.934 39.7977 38.664C39.4197 37.476 38.4477 37.908 35.9097 40.5Z" fill="currentColor"/>
</symbol>
<!-- гроза-град -->
<symbol id="thunderstorm-hail" viewBox="0 0 74 74">
<path d="M17.885 6.81102C14.553 8.33002 11.76 12.25 11.76 15.337C11.76 16.268 11.368 16.562 9.60403 17.052C4.31203 18.424 2.20503 25.235 5.68403 29.4C7.84003 31.899 8.47703 32.095 17.591 32.34L26.166 32.585L23.373 34.692L20.58 36.799V40.474V44.149L23.52 41.895L26.46 39.641V36.015V32.438L32.487 32.291C38.073 32.095 38.71 31.997 40.523 30.772C43.61 28.763 44.835 26.362 44.835 22.491C44.835 19.845 44.59 18.963 43.512 17.297C41.454 14.21 39.102 12.985 35.182 12.985C32.046 12.985 31.85 12.936 31.311 11.662C31.017 10.927 29.939 9.55502 28.91 8.62402C25.823 5.83102 21.511 5.14502 17.885 6.81102Z" fill="currentColor"/>
<path d="M10.6818 39.494L7.83984 41.699V45.374V49.049L10.7798 46.795L13.7198 44.541V40.866C13.7198 38.857 13.6708 37.24 13.6218 37.24C13.5238 37.289 12.2008 38.269 10.6818 39.494Z" fill="currentColor"/>
<path d="M33.2219 39.494L30.3799 41.699V45.374V49.049L33.3199 46.795L36.2599 44.541V40.866C36.2599 38.857 36.2109 37.24 36.1619 37.24C36.0639 37.289 34.7409 38.269 33.2219 39.494Z" fill="currentColor"/>
</symbol>


<!-- 
<symbol id="drizzle" viewBox="0 0 74 74">

</symbol> -->


<symbol id="favicon" viewBox="0 0 574 408">
<path fill-rule="evenodd" clip-rule="evenodd" d="M267.166 1.62764C239.73 7.32871 213.049 20.5533 194.604 37.5916C166.459 63.5905 148.143 99.4527 143.311 138.018C142.203 146.857 142.874 146.421 133.537 144.369C123.416 142.144 106.549 141.957 97.1288 143.963C48.4567 154.332 10.1443 196.455 1.3022 249.322C-0.806109 261.924 -0.279282 288.042 2.33986 300.792C12.2736 349.16 43.7863 385.838 88.1457 400.664C108.861 407.588 97.5786 407.241 290.878 406.912C290.878 406.912 455.471 409.435 465.193 406.616C474.915 403.797 475.873 403.406 475.873 403.406C513.5 392.099 541.629 369.619 558.481 337.388C576.404 303.108 578.459 261.52 563.915 227.394C546.644 186.871 510.584 157.265 467.192 147.982C457.027 145.807 435.886 145.012 425.425 146.412C415.266 147.773 402.416 151.317 392.115 155.601C368.042 165.612 341.281 192.019 326.285 220.559C305.602 259.923 281.284 281.611 242.687 295.118C228.099 300.223 197.58 306.245 186.285 306.248C182.802 306.249 183.576 305.814 192.283 302.87C222.869 292.528 246.423 278.044 265.638 257.762C275.504 247.349 284.289 234.741 298.688 210.336C303.736 201.777 310.835 190.768 314.461 185.87C323.975 173.022 345.22 152.271 356.676 144.636C380.343 128.862 399.864 122.3 428.161 120.607C436.863 120.087 444.403 119.241 444.917 118.728C446.25 117.396 440.685 101.325 434.233 87.8788C415.551 48.9429 383.883 21.0816 342.733 7.38064C325.6 1.67557 318.399 0.55213 296.248 0.124724C279.458 -0.198826 274.799 0.0418397 267.166 1.62764Z" fill="currentColor"/>
</symbol>

<symbol id="logo" viewBox="0 0 672 121">
<path d="M31.7409 33.5163H32.6536V31.9247L32.8818 29.8782L33.11 28.7413L33.7945 26.0127L34.4791 23.7388L35.3918 21.465L36.7609 18.509L37.9018 16.4626L39.7272 13.9613L41.3245 11.9149L43.8345 9.18627L46.8009 6.68504L48.3982 5.54812L50.68 4.18382L52.9618 3.0469L55.7 1.90998L59.8073 0.773063L64.5991 0.0909119H69.6191L72.015 0.318296L73.7264 0.54568L76.4645 1.22783L80.4577 2.59213L83.5382 3.95644L86.7327 5.77551L89.4709 7.82196L91.7527 9.64103L93.35 11.4601L95.4036 13.7339L97.0009 16.0078L98.5982 18.7364L99.7391 21.0102L100.88 23.7388L101.793 26.6948V27.6044H97.0009L96.0882 27.8317L91.9809 28.5139L89.3568 29.196L86.7327 30.333L83.7664 31.6973L81.0282 33.5163L78.29 35.5628L74.8673 38.9736L73.4982 40.5652L72.5854 41.7022L71.4445 43.2938L69.8473 45.5677L68.4782 47.8415L67.1091 50.3427L65.9682 52.3892L64.8273 54.2083L64.1427 55.1178L62.0891 57.619L60.4918 59.4381L59.3509 60.4613L57.2973 62.3941L55.7 63.531L53.6463 64.8953L52.0491 65.8049L48.3982 67.6239L45.2036 68.9882L41.0963 70.1252L42.6936 69.8978L44.9754 69.6704L46.5727 69.443L48.0559 69.2156L51.3645 68.5335L55.2436 67.3965L59.1227 65.8049L61.8609 64.4405L64.1427 63.0762L65.5118 61.9393L67.5654 60.1203L68.7064 58.9833L70.0754 57.3917L71.2163 55.8L72.5854 53.7535L73.7264 51.7071L75.0954 49.2058L76.0082 47.6141L77.6054 45.3403L79.4309 43.0665L81.9409 40.5652L84.4509 38.5188L88.1018 36.2449L91.9809 34.6533L95.4036 33.7437L98.5982 33.289H102.477L104.987 33.5163L106.585 33.7437L109.095 34.4259L112.289 35.5628L115.255 36.9271L118.45 38.9736L121.188 41.2474L124.383 44.4308L125.98 46.7046L126.893 48.0689L128.262 50.3427L129.403 53.0714L130.315 56.0273L130.772 58.3012L131 60.1203V66.0322L130.772 67.8513L130.544 69.2156L130.315 70.1252L129.631 72.6264L128.49 75.5824L127.349 77.8562L125.752 80.3574L123.014 83.7682L121.873 84.9051L120.732 85.8146L119.363 86.9516L117.309 88.3159L114.799 89.9075L111.605 91.2718L107.725 92.4088L103.13 93.0909H27.1772L25.3518 92.8635L22.8418 92.4088L20.3318 91.7266L17.3654 90.5897L13.9427 88.7706L11.6609 87.1789L9.60722 85.3599L8.00995 83.7682L5.72813 81.0396L4.58722 79.2205L3.21813 76.7193L1.62086 72.8538L0.708129 69.6704L0.0235818 65.5221C0.0235818 65.5221 -0.0294773 59.8219 0.0235818 58.756C0.0766409 57.69 0.251764 56.9369 0.251764 56.9369L0.93631 53.7535L1.62086 51.7071L2.53358 49.4332L3.67449 46.932L5.27176 44.4308L7.09722 42.1569L9.15086 39.8831L11.889 37.6092L15.0836 35.5628C15.7301 35.2217 17.3198 34.4259 18.5063 33.9711C19.6929 33.5163 22.7277 32.8721 24.0968 32.6068H28.5463C29.6416 32.6068 31.1324 33.2132 31.7409 33.5163Z" fill="currentColor"/>
</symbol>
</svg>