<svg xmlns="http://www.w3.org/2000/svg" style="display:none">
  <symbol id="wind" viewBox="0 0 54 100">
    <path d="M25.0941 0.428394C24.5023 -0.151299 23.5526 -0.141472 22.9729 0.450342L13.5262 10.0945C12.9465 10.6864 12.9563 11.6361 13.5482 12.2158C14.14 12.7954 15.0897 12.7856 15.6694 12.1938L24.0664 3.62118L32.639 12.0182C33.2308 12.5979 34.1805 12.5881 34.7602 11.9963C35.3399 11.4044 35.3301 10.4548 34.7383 9.87506L25.0941 0.428394ZM24.9682 90.7812L26.4682 90.7657L25.5444 1.48445L24.0445 1.49997L22.5445 1.51549L23.4683 90.7968L24.9682 90.7812Z" fill="currentColor"/>
    <path d="M23.2744 97.4712C20.0736 96.6135 18.1741 93.3235 19.0318 90.1227C19.8894 86.9219 23.1794 85.0224 26.3802 85.8801C29.581 86.7377 31.4805 90.0277 30.6229 93.2285C29.7652 96.4293 26.4752 98.3288 23.2744 97.4712Z" fill="currentColor"/>
</symbol>
<symbol id="sunny" viewBox="0 0 48 46">
<path d="M35.0118 23.2805C35.0118 29.3219 30.0816 34.2195 24 34.2195C17.9184 34.2195 12.9882 29.3219 12.9882 23.2805C12.9882 17.239 17.9184 12.3415 24 12.3415C30.0816 12.3415 35.0118 17.239 35.0118 23.2805Z" fill="#F9D71C"/>
<path d="M0 23.561C0 22.9413 0.505655 22.439 1.12941 22.439H7.90588C8.52964 22.439 9.03529 22.9413 9.03529 23.561C9.03529 24.1806 8.52964 24.6829 7.90588 24.6829H1.12941C0.505655 24.6829 0 24.1806 0 23.561Z" fill="#F9D71C"/>
<path d="M7.01038 40.2376C6.56932 39.7995 6.56932 39.0891 7.01038 38.6509L11.8021 33.8909C12.2431 33.4528 12.9582 33.4528 13.3993 33.8909C13.8404 34.3291 13.8404 35.0394 13.3993 35.4776L8.60761 40.2376C8.16655 40.6758 7.45144 40.6758 7.01038 40.2376Z" fill="#F9D71C"/>
<path d="M23.7176 46C23.0939 46 22.5882 45.4977 22.5882 44.878V38.1463C22.5882 37.5267 23.0939 37.0244 23.7176 37.0244C24.3414 37.0244 24.8471 37.5267 24.8471 38.1463V44.878C24.8471 45.4977 24.3414 46 23.7176 46Z" fill="#F9D71C"/>
<path d="M40.5051 40.2376C40.064 40.6757 39.3489 40.6757 38.9078 40.2376L34.1161 35.4776C33.6751 35.0394 33.6751 34.329 34.1161 33.8909C34.5572 33.4527 35.2723 33.4527 35.7134 33.8909L40.5051 38.6509C40.9461 39.0891 40.9461 39.7994 40.5051 40.2376Z" fill="#F9D71C"/>
<path d="M48 23.561C48 24.1806 47.4943 24.6829 46.8706 24.6829H40.0941C39.4704 24.6829 38.9647 24.1806 38.9647 23.561C38.9647 22.9413 39.4704 22.439 40.0941 22.439H46.8706C47.4943 22.439 48 22.9413 48 23.561Z" fill="#F9D71C"/>
<path d="M40.5052 6.96404C40.9462 7.40219 40.9462 8.11257 40.5052 8.55072L35.7135 13.3108C35.2724 13.7489 34.5573 13.7489 34.1162 13.3108C33.6752 12.8726 33.6752 12.1622 34.1162 11.7241L38.9079 6.96404C39.349 6.52589 40.0641 6.52589 40.5052 6.96404Z" fill="#F9D71C"/>
<path d="M23.7176 0C24.3414 2.70852e-08 24.8471 0.502315 24.8471 1.12195V7.85366C24.8471 8.4733 24.3414 8.97561 23.7176 8.97561C23.0939 8.97561 22.5882 8.4733 22.5882 7.85366V1.12195C22.5882 0.502315 23.0939 -2.70852e-08 23.7176 0Z" fill="#F9D71C"/>
<path d="M7.01049 6.96407C7.45155 6.52592 8.16665 6.52592 8.60771 6.96407L13.3994 11.7241C13.8405 12.1623 13.8405 12.8726 13.3994 13.3108C12.9583 13.7489 12.2432 13.7489 11.8022 13.3108L7.01049 8.55075C6.56942 8.1126 6.56942 7.40222 7.01049 6.96407Z" fill="#F9D71C"/>
</symbol>

<symbol id="favicon" viewBox="0 0 574 408">
<path fill-rule="evenodd" clip-rule="evenodd" d="M267.166 1.62764C239.73 7.32871 213.049 20.5533 194.604 37.5916C166.459 63.5905 148.143 99.4527 143.311 138.018C142.203 146.857 142.874 146.421 133.537 144.369C123.416 142.144 106.549 141.957 97.1288 143.963C48.4567 154.332 10.1443 196.455 1.3022 249.322C-0.806109 261.924 -0.279282 288.042 2.33986 300.792C12.2736 349.16 43.7863 385.838 88.1457 400.664C108.861 407.588 97.5786 407.241 290.878 406.912C290.878 406.912 455.471 409.435 465.193 406.616C474.915 403.797 475.873 403.406 475.873 403.406C513.5 392.099 541.629 369.619 558.481 337.388C576.404 303.108 578.459 261.52 563.915 227.394C546.644 186.871 510.584 157.265 467.192 147.982C457.027 145.807 435.886 145.012 425.425 146.412C415.266 147.773 402.416 151.317 392.115 155.601C368.042 165.612 341.281 192.019 326.285 220.559C305.602 259.923 281.284 281.611 242.687 295.118C228.099 300.223 197.58 306.245 186.285 306.248C182.802 306.249 183.576 305.814 192.283 302.87C222.869 292.528 246.423 278.044 265.638 257.762C275.504 247.349 284.289 234.741 298.688 210.336C303.736 201.777 310.835 190.768 314.461 185.87C323.975 173.022 345.22 152.271 356.676 144.636C380.343 128.862 399.864 122.3 428.161 120.607C436.863 120.087 444.403 119.241 444.917 118.728C446.25 117.396 440.685 101.325 434.233 87.8788C415.551 48.9429 383.883 21.0816 342.733 7.38064C325.6 1.67557 318.399 0.55213 296.248 0.124724C279.458 -0.198826 274.799 0.0418397 267.166 1.62764Z" fill="currentColor"/>
</symbol>
  <!-- можно добавить сразу много иконок -->
</svg>