<svg xmlns="http://www.w3.org/2000/svg" style="display:none">
<!-- вітер стрілка -->
<symbol id="wind" viewBox="0 0 54 100">
<path d="M25.0941 0.428394C24.5023 -0.151299 23.5526 -0.141472 22.9729 0.450342L13.5262 10.0945C12.9465 10.6864 12.9563 11.6361 13.5482 12.2158C14.14 12.7954 15.0897 12.7856 15.6694 12.1938L24.0664 3.62118L32.639 12.0182C33.2308 12.5979 34.1805 12.5881 34.7602 11.9963C35.3399 11.4044 35.3301 10.4548 34.7383 9.87506L25.0941 0.428394ZM24.9682 90.7812L26.4682 90.7657L25.5444 1.48445L24.0445 1.49997L22.5445 1.51549L23.4683 90.7968L24.9682 90.7812Z" fill="currentColor"/>
<path d="M23.2744 97.4712C20.0736 96.6135 18.1741 93.3235 19.0318 90.1227C19.8894 86.9219 23.1794 85.0224 26.3802 85.8801C29.581 86.7377 31.4805 90.0277 30.6229 93.2285C29.7652 96.4293 26.4752 98.3288 23.2744 97.4712Z" fill="currentColor"/>
</symbol>
<!-- ясно -->
<symbol id="clear" viewBox="0 0 24 24" fill="currentColor" stroke="currentColor" stroke-width="2" stroke-linecap="round" stroke-linejoin="round">
<circle cx="12" cy="12" r="4"/>
<path d="M12 2v2"/>
<path d="M12 20v2"/>
<path d="m4.93 4.93 1.41 1.41"/>
<path d="m17.66 17.66 1.41 1.41"/>
<path d="M2 12h2"/><path d="M20 12h2"/>
<path d="m6.34 17.66-1.41 1.41"/>
<path d="m19.07 4.93-1.41 1.41"/>
</symbol>
<!-- мінлива хмарність -->
<symbol id="partly-cloudy" viewBox="0 0 24 24" fill="none" stroke="currentColor" stroke-width="2" stroke-linecap="round" stroke-linejoin="round">
<path d="M12 2v2"/>
<path d="m4.93 4.93 1.41 1.41"/>
<path d="M20 12h2"/>
<path d="m19.07 4.93-1.41 1.41"/>
<path d="M15.947 12.65a4 4 0 0 0-5.925-4.128"/>
<path d="M13 22H7a5 5 0 1 1 4.9-6H13a3 3 0 0 1 0 6Z"/>
</symbol>
<!-- хмарно -->
<symbol id="cloudy" viewBox="0 0 24 24" fill="none" stroke="currentColor" stroke-width="2" stroke-linecap="round" stroke-linejoin="round">
<path d="M17.5 19H9a7 7 0 1 1 6.71-9h1.79a4.5 4.5 0 1 1 0 9Z"/>
</symbol>

<!-- туман -->
<symbol id="fog" viewBox="0 0 24 24" fill="none" stroke="currentColor" stroke-width="2" stroke-linecap="round" stroke-linejoin="round">
<path d="M2 6c.6.5 1.2 1 2.5 1C7 7 7 5 9.5 5c2.6 0 2.4 2 5 2 2.5 0 2.5-2 5-2 1.3 0 1.9.5 2.5 1"/>
<path d="M2 12c.6.5 1.2 1 2.5 1 2.5 0 2.5-2 5-2 2.6 0 2.4 2 5 2 2.5 0 2.5-2 5-2 1.3 0 1.9.5 2.5 1"/>
<path d="M2 18c.6.5 1.2 1 2.5 1 2.5 0 2.5-2 5-2 2.6 0 2.4 2 5 2 2.5 0 2.5-2 5-2 1.3 0 1.9.5 2.5 1"/>
</symbol>
<!-- мряка -->
<symbol id="drizzle" viewBox="0 0 24 24" fill="none" stroke="currentColor" stroke-width="2" stroke-linecap="round" stroke-linejoin="round">
<path d="M12 2v2"/>
<path d="m4.93 4.93 1.41 1.41"/>
<path d="M20 12h2"/>
<path d="m19.07 4.93-1.41 1.41"/>
<path d="M15.947 12.65a4 4 0 0 0-5.925-4.128"/>
<path d="M3 20a5 5 0 1 1 8.9-4H13a3 3 0 0 1 2 5.24"/>
<path d="M11 20v2"/>
<path d="M7 19v2"/>
</symbol>
<!-- дощ -->
<symbol id="rain" viewBox="0 0 24 24" fill="none" stroke="currentColor" stroke-width="2" stroke-linecap="round" stroke-linejoin="round">
<path d="M4 14.899A7 7 0 1 1 15.71 8h1.79a4.5 4.5 0 0 1 2.5 8.242"/>
<path d="M8 19v1"/>
<path d="M8 14v1"/>
<path d="M16 19v1"/>
<path d="M16 14v1"/>
<path d="M12 21v1"/>
<path d="M12 16v1"/>
</symbol>
<!-- сніг -->
<symbol id="snow" viewBox="0 0 24 24" fill="none" stroke="currentColor" stroke-width="2" stroke-linecap="round" stroke-linejoin="round">
<path d="m10 20-1.25-2.5L6 18"/>
<path d="M10 4 8.75 6.5 6 6"/>
<path d="m14 20 1.25-2.5L18 18"/>
<path d="m14 4 1.25 2.5L18 6"/>
<path d="m17 21-3-6h-4"/>
<path d="m17 3-3 6 1.5 3"/>
<path d="M2 12h6.5L10 9"/>
<path d="m20 10-1.5 2 1.5 2"/>
<path d="M22 12h-6.5L14 15"/>
<path d="m4 10 1.5 2L4 14"/>
<path d="m7 21 3-6-1.5-3"/>
<path d="m7 3 3 6h4"/>
</symbol>
<!-- снігопад -->
<symbol id="snowfall" viewBox="0 0 74 74">
<path d="M22.2652 7.25898C18.1172 9.14998 14.6402 14.03 14.6402 17.873C14.6402 19.032 14.1522 19.398 11.9562 20.008C5.36821 21.777 2.74521 30.195 7.13721 35.441C9.63821 38.43 11.8952 39.04 19.7642 39.04C25.7422 39.04 26.7792 38.918 26.4742 38.125C26.2302 37.637 26.5352 37.088 27.0842 36.844C28.0602 36.478 28.4872 32.94 27.5722 32.94C26.5962 32.94 25.1322 34.465 24.8882 35.685C24.7052 36.417 24.2782 36.783 23.7292 36.661C23.2412 36.539 22.2652 36.478 21.5332 36.478C19.9472 36.6 19.0932 35.563 20.0692 34.587C20.4352 34.221 20.7402 33.428 20.7402 32.879C20.7402 31.659 22.2042 30.988 23.0582 31.842C23.6072 32.391 26.2302 31.293 26.2302 30.5C26.2302 29.707 23.6072 28.609 23.0582 29.158C22.2042 30.012 20.7402 29.341 20.7402 28.121C20.7402 27.572 20.4352 26.779 20.0692 26.413C19.0932 25.437 19.9472 24.4 21.5332 24.522C22.2652 24.522 23.2412 24.461 23.7292 24.339C24.2782 24.217 24.7052 24.583 24.8882 25.315C25.1322 26.535 26.5962 28.06 27.5722 28.06C28.4872 28.06 28.0602 24.827 27.0232 24.034C26.0472 23.241 26.0472 23.119 26.9012 22.387C27.3892 22.021 27.9992 21.167 28.2432 20.557C28.4262 20.008 28.9142 19.52 29.2802 19.52C29.6462 19.52 30.1342 20.008 30.3172 20.557C30.5612 21.167 31.1712 22.021 31.6592 22.387C32.5132 23.119 32.5132 23.241 31.5982 24.034C30.6222 24.766 30.0122 28.06 30.8662 28.06C31.9642 28.06 33.5502 26.657 33.5502 25.62C33.5502 24.705 33.9772 24.461 35.9902 24.522C38.6132 24.522 39.5892 25.315 38.4912 26.413C38.1252 26.779 37.8202 27.572 37.8202 28.121C37.8202 29.341 36.3562 30.012 35.5022 29.158C34.9532 28.609 32.3302 29.707 32.3302 30.5C32.3302 31.293 34.9532 32.391 35.5022 31.842C36.3562 30.988 37.8202 31.659 37.8202 32.879C37.8202 33.428 38.1252 34.221 38.4912 34.587C39.4672 35.563 38.6132 36.6 37.0272 36.478C36.2952 36.478 35.3192 36.539 34.8312 36.661C34.2822 36.783 33.8552 36.417 33.6722 35.685C33.4282 34.465 31.9642 32.94 30.9882 32.94C30.0732 32.94 30.5002 36.478 31.4762 36.844C32.0862 37.088 32.3302 37.576 32.0862 38.186C31.7812 39.04 32.6352 39.162 39.8332 38.918C47.4582 38.735 48.1292 38.613 50.4472 37.088C54.2902 34.587 55.8152 31.598 55.8152 26.779C55.8152 23.485 55.5102 22.387 54.1682 20.313C51.6062 16.47 48.6782 14.945 43.7982 14.945C39.8942 14.945 39.6502 14.884 38.9792 13.298C38.6132 12.383 37.2712 10.675 35.9902 9.51598C32.1472 6.03897 26.7792 5.18497 22.2652 7.25898Z" fill="currentColor"/>
<path d="M28.1824 40.077C28.3044 40.687 28.7924 41.175 29.2804 41.175C29.7684 41.175 30.2564 40.687 30.3784 40.077C30.5004 39.345 30.1954 39.04 29.2804 39.04C28.3654 39.04 28.0604 39.345 28.1824 40.077Z" fill="currentColor"/>
<path d="M47.8853 42.09C47.7023 42.395 47.7023 43.005 47.9463 43.432C48.1903 43.798 47.8853 44.469 47.2753 44.896C45.8723 45.933 46.5433 47.824 48.1293 47.275C48.9223 47.031 49.5323 47.275 49.8983 47.946C50.6913 49.41 52.6433 48.617 52.1553 47.031C51.9113 46.238 52.1553 45.628 52.8263 45.262C54.2903 44.408 53.4973 42.517 51.8503 43.005C51.0573 43.249 50.5083 43.066 50.2643 42.456C49.8373 41.358 48.4343 41.175 47.8853 42.09Z" fill="currentColor"/>
<path d="M8.84528 43.31C8.66228 43.615 8.66228 44.225 8.90628 44.652C9.15028 45.018 8.84528 45.689 8.23528 46.116C6.83228 47.153 7.50328 49.044 9.08928 48.495C9.88228 48.251 10.4923 48.495 10.8583 49.166C11.6513 50.63 13.6033 49.837 13.1153 48.251C12.8713 47.458 13.1153 46.848 13.7863 46.482C15.2503 45.628 14.4573 43.737 12.8103 44.225C12.0173 44.469 11.4683 44.286 11.2243 43.676C10.7973 42.578 9.39428 42.395 8.84528 43.31Z" fill="currentColor"/>
<path d="M29.585 48.19C29.402 48.495 29.402 49.105 29.646 49.532C29.89 49.898 29.585 50.569 28.975 50.996C27.572 52.033 28.243 53.924 29.829 53.375C30.622 53.131 31.232 53.375 31.598 54.046C32.391 55.51 34.343 54.717 33.855 53.131C33.611 52.338 33.855 51.728 34.526 51.362C35.99 50.508 35.197 48.617 33.55 49.105C32.757 49.349 32.208 49.166 31.964 48.556C31.537 47.458 30.134 47.275 29.585 48.19Z" fill="currentColor"/>
<path d="M17.3853 53.07C17.2023 53.375 17.2023 53.985 17.4463 54.412C17.6903 54.778 17.3853 55.449 16.7753 55.876C15.3723 56.913 16.0433 58.804 17.6293 58.255C18.4223 58.011 19.0323 58.255 19.3983 58.926C20.1913 60.39 22.1433 59.597 21.6553 58.011C21.4113 57.218 21.6553 56.608 22.3263 56.242C23.7903 55.388 22.9973 53.497 21.3503 53.985C20.5573 54.229 20.0083 54.046 19.7643 53.436C19.3373 52.338 17.9343 52.155 17.3853 53.07Z" fill="currentColor"/>
<path d="M41.7852 53.07C41.6022 53.375 41.6022 53.985 41.8462 54.412C42.0902 54.778 41.7852 55.449 41.1752 55.876C39.7722 56.913 40.4432 58.804 42.0292 58.255C42.8222 58.011 43.4322 58.255 43.7982 58.926C44.5912 60.39 46.5432 59.597 46.0552 58.011C45.8112 57.218 46.0552 56.608 46.7262 56.242C48.1902 55.388 47.3972 53.497 45.7502 53.985C44.9572 54.229 44.4082 54.046 44.1642 53.436C43.7372 52.338 42.3342 52.155 41.7852 53.07Z" fill="currentColor"/>
</symbol>
<!-- гроза -->
<symbol id="thunderstorm" viewBox="0 0 24 24" fill="none" stroke="currentColor" stroke-width="2" stroke-linecap="round" stroke-linejoin="round">
<path d="M6 16.326A7 7 0 1 1 15.71 8h1.79a4.5 4.5 0 0 1 .5 8.973"/>
<path d="m13 12-3 5h4l-3 5"/>
</symbol>
<!-- гроза-град -->
<symbol id="thunderstorm-hail" viewBox="0 0 24 24" fill="none" stroke="currentColor" stroke-width="2" stroke-linecap="round" stroke-linejoin="round">
<path d="M4 14.899A7 7 0 1 1 15.71 8h1.79a4.5 4.5 0 0 1 2.5 8.242"/>
<path d="m9.2 22 3-7"/>
<path d="m9 13-3 7"/>
<path d="m17 13-3 7"/>
</symbol>


<!-- 
<symbol id="drizzle" viewBox="0 0 74 74">

</symbol> -->


<symbol id="favicon" viewBox="0 0 574 408">
<path fill-rule="evenodd" clip-rule="evenodd" d="M267.166 1.62764C239.73 7.32871 213.049 20.5533 194.604 37.5916C166.459 63.5905 148.143 99.4527 143.311 138.018C142.203 146.857 142.874 146.421 133.537 144.369C123.416 142.144 106.549 141.957 97.1288 143.963C48.4567 154.332 10.1443 196.455 1.3022 249.322C-0.806109 261.924 -0.279282 288.042 2.33986 300.792C12.2736 349.16 43.7863 385.838 88.1457 400.664C108.861 407.588 97.5786 407.241 290.878 406.912C290.878 406.912 455.471 409.435 465.193 406.616C474.915 403.797 475.873 403.406 475.873 403.406C513.5 392.099 541.629 369.619 558.481 337.388C576.404 303.108 578.459 261.52 563.915 227.394C546.644 186.871 510.584 157.265 467.192 147.982C457.027 145.807 435.886 145.012 425.425 146.412C415.266 147.773 402.416 151.317 392.115 155.601C368.042 165.612 341.281 192.019 326.285 220.559C305.602 259.923 281.284 281.611 242.687 295.118C228.099 300.223 197.58 306.245 186.285 306.248C182.802 306.249 183.576 305.814 192.283 302.87C222.869 292.528 246.423 278.044 265.638 257.762C275.504 247.349 284.289 234.741 298.688 210.336C303.736 201.777 310.835 190.768 314.461 185.87C323.975 173.022 345.22 152.271 356.676 144.636C380.343 128.862 399.864 122.3 428.161 120.607C436.863 120.087 444.403 119.241 444.917 118.728C446.25 117.396 440.685 101.325 434.233 87.8788C415.551 48.9429 383.883 21.0816 342.733 7.38064C325.6 1.67557 318.399 0.55213 296.248 0.124724C279.458 -0.198826 274.799 0.0418397 267.166 1.62764Z" fill="currentColor"/>
</symbol>
<!-- лого pogodka -->
<symbol id="logo" viewBox="0 0 672 121">
<path d="M31.7409 33.5163H32.6536V31.9247L32.8818 29.8782L33.11 28.7413L33.7945 26.0127L34.4791 23.7388L35.3918 21.465L36.7609 18.509L37.9018 16.4626L39.7272 13.9613L41.3245 11.9149L43.8345 9.18627L46.8009 6.68504L48.3982 5.54812L50.68 4.18382L52.9618 3.0469L55.7 1.90998L59.8073 0.773063L64.5991 0.0909119H69.6191L72.015 0.318296L73.7264 0.54568L76.4645 1.22783L80.4577 2.59213L83.5382 3.95644L86.7327 5.77551L89.4709 7.82196L91.7527 9.64103L93.35 11.4601L95.4036 13.7339L97.0009 16.0078L98.5982 18.7364L99.7391 21.0102L100.88 23.7388L101.793 26.6948V27.6044H97.0009L96.0882 27.8317L91.9809 28.5139L89.3568 29.196L86.7327 30.333L83.7664 31.6973L81.0282 33.5163L78.29 35.5628L74.8673 38.9736L73.4982 40.5652L72.5854 41.7022L71.4445 43.2938L69.8473 45.5677L68.4782 47.8415L67.1091 50.3427L65.9682 52.3892L64.8273 54.2083L64.1427 55.1178L62.0891 57.619L60.4918 59.4381L59.3509 60.4613L57.2973 62.3941L55.7 63.531L53.6463 64.8953L52.0491 65.8049L48.3982 67.6239L45.2036 68.9882L41.0963 70.1252L42.6936 69.8978L44.9754 69.6704L46.5727 69.443L48.0559 69.2156L51.3645 68.5335L55.2436 67.3965L59.1227 65.8049L61.8609 64.4405L64.1427 63.0762L65.5118 61.9393L67.5654 60.1203L68.7064 58.9833L70.0754 57.3917L71.2163 55.8L72.5854 53.7535L73.7264 51.7071L75.0954 49.2058L76.0082 47.6141L77.6054 45.3403L79.4309 43.0665L81.9409 40.5652L84.4509 38.5188L88.1018 36.2449L91.9809 34.6533L95.4036 33.7437L98.5982 33.289H102.477L104.987 33.5163L106.585 33.7437L109.095 34.4259L112.289 35.5628L115.255 36.9271L118.45 38.9736L121.188 41.2474L124.383 44.4308L125.98 46.7046L126.893 48.0689L128.262 50.3427L129.403 53.0714L130.315 56.0273L130.772 58.3012L131 60.1203V66.0322L130.772 67.8513L130.544 69.2156L130.315 70.1252L129.631 72.6264L128.49 75.5824L127.349 77.8562L125.752 80.3574L123.014 83.7682L121.873 84.9051L120.732 85.8146L119.363 86.9516L117.309 88.3159L114.799 89.9075L111.605 91.2718L107.725 92.4088L103.13 93.0909H27.1772L25.3518 92.8635L22.8418 92.4088L20.3318 91.7266L17.3654 90.5897L13.9427 88.7706L11.6609 87.1789L9.60722 85.3599L8.00995 83.7682L5.72813 81.0396L4.58722 79.2205L3.21813 76.7193L1.62086 72.8538L0.708129 69.6704L0.0235818 65.5221C0.0235818 65.5221 -0.0294773 59.8219 0.0235818 58.756C0.0766409 57.69 0.251764 56.9369 0.251764 56.9369L0.93631 53.7535L1.62086 51.7071L2.53358 49.4332L3.67449 46.932L5.27176 44.4308L7.09722 42.1569L9.15086 39.8831L11.889 37.6092L15.0836 35.5628C15.7301 35.2217 17.3198 34.4259 18.5063 33.9711C19.6929 33.5163 22.7277 32.8721 24.0968 32.6068H28.5463C29.6416 32.6068 31.1324 33.2132 31.7409 33.5163Z" fill="currentColor"/>
</symbol>
</svg>