<svg xmlns="http://www.w3.org/2000/svg" style="display:none">
  <symbol id="wind" viewBox="0 0 54 100">
    <path d="M25.0941 0.428394C24.5023 -0.151299 23.5526 -0.141472 22.9729 0.450342L13.5262 10.0945C12.9465 10.6864 12.9563 11.6361 13.5482 12.2158C14.14 12.7954 15.0897 12.7856 15.6694 12.1938L24.0664 3.62118L32.639 12.0182C33.2308 12.5979 34.1805 12.5881 34.7602 11.9963C35.3399 11.4044 35.3301 10.4548 34.7383 9.87506L25.0941 0.428394ZM24.9682 90.7812L26.4682 90.7657L25.5444 1.48445L24.0445 1.49997L22.5445 1.51549L23.4683 90.7968L24.9682 90.7812Z" fill="currentColor"/>
    <path d="M23.2744 97.4712C20.0736 96.6135 18.1741 93.3235 19.0318 90.1227C19.8894 86.9219 23.1794 85.0224 26.3802 85.8801C29.581 86.7377 31.4805 90.0277 30.6229 93.2285C29.7652 96.4293 26.4752 98.3288 23.2744 97.4712Z" fill="currentColor"/>
</symbol>
<symbol id="sunny" viewBox="0 0 48 46">
<path d="M35.0118 23.2805C35.0118 29.3219 30.0816 34.2195 24 34.2195C17.9184 34.2195 12.9882 29.3219 12.9882 23.2805C12.9882 17.239 17.9184 12.3415 24 12.3415C30.0816 12.3415 35.0118 17.239 35.0118 23.2805Z" fill="#F9D71C"/>
<path d="M0 23.561C0 22.9413 0.505655 22.439 1.12941 22.439H7.90588C8.52964 22.439 9.03529 22.9413 9.03529 23.561C9.03529 24.1806 8.52964 24.6829 7.90588 24.6829H1.12941C0.505655 24.6829 0 24.1806 0 23.561Z" fill="#F9D71C"/>
<path d="M7.01038 40.2376C6.56932 39.7995 6.56932 39.0891 7.01038 38.6509L11.8021 33.8909C12.2431 33.4528 12.9582 33.4528 13.3993 33.8909C13.8404 34.3291 13.8404 35.0394 13.3993 35.4776L8.60761 40.2376C8.16655 40.6758 7.45144 40.6758 7.01038 40.2376Z" fill="#F9D71C"/>
<path d="M23.7176 46C23.0939 46 22.5882 45.4977 22.5882 44.878V38.1463C22.5882 37.5267 23.0939 37.0244 23.7176 37.0244C24.3414 37.0244 24.8471 37.5267 24.8471 38.1463V44.878C24.8471 45.4977 24.3414 46 23.7176 46Z" fill="#F9D71C"/>
<path d="M40.5051 40.2376C40.064 40.6757 39.3489 40.6757 38.9078 40.2376L34.1161 35.4776C33.6751 35.0394 33.6751 34.329 34.1161 33.8909C34.5572 33.4527 35.2723 33.4527 35.7134 33.8909L40.5051 38.6509C40.9461 39.0891 40.9461 39.7994 40.5051 40.2376Z" fill="#F9D71C"/>
<path d="M48 23.561C48 24.1806 47.4943 24.6829 46.8706 24.6829H40.0941C39.4704 24.6829 38.9647 24.1806 38.9647 23.561C38.9647 22.9413 39.4704 22.439 40.0941 22.439H46.8706C47.4943 22.439 48 22.9413 48 23.561Z" fill="#F9D71C"/>
<path d="M40.5052 6.96404C40.9462 7.40219 40.9462 8.11257 40.5052 8.55072L35.7135 13.3108C35.2724 13.7489 34.5573 13.7489 34.1162 13.3108C33.6752 12.8726 33.6752 12.1622 34.1162 11.7241L38.9079 6.96404C39.349 6.52589 40.0641 6.52589 40.5052 6.96404Z" fill="#F9D71C"/>
<path d="M23.7176 0C24.3414 2.70852e-08 24.8471 0.502315 24.8471 1.12195V7.85366C24.8471 8.4733 24.3414 8.97561 23.7176 8.97561C23.0939 8.97561 22.5882 8.4733 22.5882 7.85366V1.12195C22.5882 0.502315 23.0939 -2.70852e-08 23.7176 0Z" fill="#F9D71C"/>
<path d="M7.01049 6.96407C7.45155 6.52592 8.16665 6.52592 8.60771 6.96407L13.3994 11.7241C13.8405 12.1623 13.8405 12.8726 13.3994 13.3108C12.9583 13.7489 12.2432 13.7489 11.8022 13.3108L7.01049 8.55075C6.56942 8.1126 6.56942 7.40222 7.01049 6.96407Z" fill="#F9D71C"/>
</symbol>

<symbol id="favicon" viewBox="0 0 574 408">
<path fill-rule="evenodd" clip-rule="evenodd" d="M267.166 1.62764C239.73 7.32871 213.049 20.5533 194.604 37.5916C166.459 63.5905 148.143 99.4527 143.311 138.018C142.203 146.857 142.874 146.421 133.537 144.369C123.416 142.144 106.549 141.957 97.1288 143.963C48.4567 154.332 10.1443 196.455 1.3022 249.322C-0.806109 261.924 -0.279282 288.042 2.33986 300.792C12.2736 349.16 43.7863 385.838 88.1457 400.664C108.861 407.588 97.5786 407.241 290.878 406.912C290.878 406.912 455.471 409.435 465.193 406.616C474.915 403.797 475.873 403.406 475.873 403.406C513.5 392.099 541.629 369.619 558.481 337.388C576.404 303.108 578.459 261.52 563.915 227.394C546.644 186.871 510.584 157.265 467.192 147.982C457.027 145.807 435.886 145.012 425.425 146.412C415.266 147.773 402.416 151.317 392.115 155.601C368.042 165.612 341.281 192.019 326.285 220.559C305.602 259.923 281.284 281.611 242.687 295.118C228.099 300.223 197.58 306.245 186.285 306.248C182.802 306.249 183.576 305.814 192.283 302.87C222.869 292.528 246.423 278.044 265.638 257.762C275.504 247.349 284.289 234.741 298.688 210.336C303.736 201.777 310.835 190.768 314.461 185.87C323.975 173.022 345.22 152.271 356.676 144.636C380.343 128.862 399.864 122.3 428.161 120.607C436.863 120.087 444.403 119.241 444.917 118.728C446.25 117.396 440.685 101.325 434.233 87.8788C415.551 48.9429 383.883 21.0816 342.733 7.38064C325.6 1.67557 318.399 0.55213 296.248 0.124724C279.458 -0.198826 274.799 0.0418397 267.166 1.62764Z" fill="currentColor"/>
</symbol>

<symbol id="logo" viewBox="0 0 672 121">
<path d="M31.7409 33.5163H32.6536V31.9247L32.8818 29.8782L33.11 28.7413L33.7945 26.0127L34.4791 23.7388L35.3918 21.465L36.7609 18.509L37.9018 16.4626L39.7272 13.9613L41.3245 11.9149L43.8345 9.18627L46.8009 6.68504L48.3982 5.54812L50.68 4.18382L52.9618 3.0469L55.7 1.90998L59.8073 0.773063L64.5991 0.0909119H69.6191L72.015 0.318296L73.7264 0.54568L76.4645 1.22783L80.4577 2.59213L83.5382 3.95644L86.7327 5.77551L89.4709 7.82196L91.7527 9.64103L93.35 11.4601L95.4036 13.7339L97.0009 16.0078L98.5982 18.7364L99.7391 21.0102L100.88 23.7388L101.793 26.6948V27.6044H97.0009L96.0882 27.8317L91.9809 28.5139L89.3568 29.196L86.7327 30.333L83.7664 31.6973L81.0282 33.5163L78.29 35.5628L74.8673 38.9736L73.4982 40.5652L72.5854 41.7022L71.4445 43.2938L69.8473 45.5677L68.4782 47.8415L67.1091 50.3427L65.9682 52.3892L64.8273 54.2083L64.1427 55.1178L62.0891 57.619L60.4918 59.4381L59.3509 60.4613L57.2973 62.3941L55.7 63.531L53.6463 64.8953L52.0491 65.8049L48.3982 67.6239L45.2036 68.9882L41.0963 70.1252L42.6936 69.8978L44.9754 69.6704L46.5727 69.443L48.0559 69.2156L51.3645 68.5335L55.2436 67.3965L59.1227 65.8049L61.8609 64.4405L64.1427 63.0762L65.5118 61.9393L67.5654 60.1203L68.7064 58.9833L70.0754 57.3917L71.2163 55.8L72.5854 53.7535L73.7264 51.7071L75.0954 49.2058L76.0082 47.6141L77.6054 45.3403L79.4309 43.0665L81.9409 40.5652L84.4509 38.5188L88.1018 36.2449L91.9809 34.6533L95.4036 33.7437L98.5982 33.289H102.477L104.987 33.5163L106.585 33.7437L109.095 34.4259L112.289 35.5628L115.255 36.9271L118.45 38.9736L121.188 41.2474L124.383 44.4308L125.98 46.7046L126.893 48.0689L128.262 50.3427L129.403 53.0714L130.315 56.0273L130.772 58.3012L131 60.1203V66.0322L130.772 67.8513L130.544 69.2156L130.315 70.1252L129.631 72.6264L128.49 75.5824L127.349 77.8562L125.752 80.3574L123.014 83.7682L121.873 84.9051L120.732 85.8146L119.363 86.9516L117.309 88.3159L114.799 89.9075L111.605 91.2718L107.725 92.4088L103.13 93.0909H27.1772L25.3518 92.8635L22.8418 92.4088L20.3318 91.7266L17.3654 90.5897L13.9427 88.7706L11.6609 87.1789L9.60722 85.3599L8.00995 83.7682L5.72813 81.0396L4.58722 79.2205L3.21813 76.7193L1.62086 72.8538L0.708129 69.6704L0.0235818 65.5221C0.0235818 65.5221 -0.0294773 59.8219 0.0235818 58.756C0.0766409 57.69 0.251764 56.9369 0.251764 56.9369L0.93631 53.7535L1.62086 51.7071L2.53358 49.4332L3.67449 46.932L5.27176 44.4308L7.09722 42.1569L9.15086 39.8831L11.889 37.6092L15.0836 35.5628C15.7301 35.2217 17.3198 34.4259 18.5063 33.9711C19.6929 33.5163 22.7277 32.8721 24.0968 32.6068H28.5463C29.6416 32.6068 31.1324 33.2132 31.7409 33.5163Z" fill="currentColor"/>
</symbol>

</svg>