<svg width="672" height="121" viewBox="0 0 672 121" fill="none" xmlns="http://www.w3.org/2000/svg">
<path d="M31.7409 33.5163H32.6536V31.9247L32.8818 29.8782L33.11 28.7413L33.7945 26.0127L34.4791 23.7388L35.3918 21.465L36.7609 18.509L37.9018 16.4626L39.7272 13.9613L41.3245 11.9149L43.8345 9.18627L46.8009 6.68504L48.3982 5.54812L50.68 4.18382L52.9618 3.0469L55.7 1.90998L59.8073 0.773063L64.5991 0.0909119H69.6191L72.015 0.318296L73.7264 0.54568L76.4645 1.22783L80.4577 2.59213L83.5382 3.95644L86.7327 5.77551L89.4709 7.82196L91.7527 9.64103L93.35 11.4601L95.4036 13.7339L97.0009 16.0078L98.5982 18.7364L99.7391 21.0102L100.88 23.7388L101.793 26.6948V27.6044H97.0009L96.0882 27.8317L91.9809 28.5139L89.3568 29.196L86.7327 30.333L83.7664 31.6973L81.0282 33.5163L78.29 35.5628L74.8673 38.9736L73.4982 40.5652L72.5854 41.7022L71.4445 43.2938L69.8473 45.5677L68.4782 47.8415L67.1091 50.3427L65.9682 52.3892L64.8273 54.2083L64.1427 55.1178L62.0891 57.619L60.4918 59.4381L59.3509 60.4613L57.2973 62.3941L55.7 63.531L53.6463 64.8953L52.0491 65.8049L48.3982 67.6239L45.2036 68.9882L41.0963 70.1252L42.6936 69.8978L44.9754 69.6704L46.5727 69.443L48.0559 69.2156L51.3645 68.5335L55.2436 67.3965L59.1227 65.8049L61.8609 64.4405L64.1427 63.0762L65.5118 61.9393L67.5654 60.1203L68.7064 58.9833L70.0754 57.3917L71.2163 55.8L72.5854 53.7535L73.7264 51.7071L75.0954 49.2058L76.0082 47.6141L77.6054 45.3403L79.4309 43.0665L81.9409 40.5652L84.4509 38.5188L88.1018 36.2449L91.9809 34.6533L95.4036 33.7437L98.5982 33.289H102.477L104.987 33.5163L106.585 33.7437L109.095 34.4259L112.289 35.5628L115.255 36.9271L118.45 38.9736L121.188 41.2474L124.383 44.4308L125.98 46.7046L126.893 48.0689L128.262 50.3427L129.403 53.0714L130.315 56.0273L130.772 58.3012L131 60.1203V66.0322L130.772 67.8513L130.544 69.2156L130.315 70.1252L129.631 72.6264L128.49 75.5824L127.349 77.8562L125.752 80.3574L123.014 83.7682L121.873 84.9051L120.732 85.8146L119.363 86.9516L117.309 88.3159L114.799 89.9075L111.605 91.2718L107.725 92.4088L103.13 93.0909H27.1772L25.3518 92.8635L22.8418 92.4088L20.3318 91.7266L17.3654 90.5897L13.9427 88.7706L11.6609 87.1789L9.60722 85.3599L8.00995 83.7682L5.72813 81.0396L4.58722 79.2205L3.21813 76.7193L1.62086 72.8538L0.708129 69.6704L0.0235818 65.5221C0.0235818 65.5221 -0.0294773 59.8219 0.0235818 58.756C0.0766409 57.69 0.251764 56.9369 0.251764 56.9369L0.93631 53.7535L1.62086 51.7071L2.53358 49.4332L3.67449 46.932L5.27176 44.4308L7.09722 42.1569L9.15086 39.8831L11.889 37.6092L15.0836 35.5628C15.7301 35.2217 17.3198 34.4259 18.5063 33.9711C19.6929 33.5163 22.7277 32.8721 24.0968 32.6068H28.5463C29.6416 32.6068 31.1324 33.2132 31.7409 33.5163Z" fill="white"/>
<path d="M144.182 93.0909V0H179.091C186.242 0 192.242 1.33333 197.091 4C201.97 6.66667 205.652 10.3333 208.136 15C210.652 19.6364 211.909 24.9091 211.909 30.8182C211.909 36.7879 210.652 42.0909 208.136 46.7273C205.621 51.3636 201.909 55.0152 197 57.6818C192.091 60.3182 186.045 61.6364 178.864 61.6364H155.727V47.7727H176.591C180.773 47.7727 184.197 47.0455 186.864 45.5909C189.53 44.1364 191.5 42.1364 192.773 39.5909C194.076 37.0455 194.727 34.1212 194.727 30.8182C194.727 27.5152 194.076 24.6061 192.773 22.0909C191.5 19.5758 189.515 17.6212 186.818 16.2273C184.152 14.803 180.712 14.0909 176.5 14.0909H161.045V93.0909H144.182Z" fill="white"/>
<path d="M255.284 94.4546C248.466 94.4546 242.557 92.9546 237.557 89.9546C232.557 86.9546 228.678 82.7576 225.92 77.3636C223.193 71.9697 221.83 65.6667 221.83 58.4545C221.83 51.2424 223.193 44.9242 225.92 39.5C228.678 34.0758 232.557 29.8636 237.557 26.8636C242.557 23.8636 248.466 22.3636 255.284 22.3636C262.102 22.3636 268.011 23.8636 273.011 26.8636C278.011 29.8636 281.875 34.0758 284.602 39.5C287.36 44.9242 288.739 51.2424 288.739 58.4545C288.739 65.6667 287.36 71.9697 284.602 77.3636C281.875 82.7576 278.011 86.9546 273.011 89.9546C268.011 92.9546 262.102 94.4546 255.284 94.4546ZM255.375 81.2727C259.072 81.2727 262.163 80.2576 264.648 78.2273C267.133 76.1667 268.981 73.4091 270.193 69.9545C271.436 66.5 272.057 62.6515 272.057 58.4091C272.057 54.1364 271.436 50.2727 270.193 46.8182C268.981 43.3333 267.133 40.5606 264.648 38.5C262.163 36.4394 259.072 35.4091 255.375 35.4091C251.587 35.4091 248.436 36.4394 245.92 38.5C243.436 40.5606 241.572 43.3333 240.33 46.8182C239.117 50.2727 238.511 54.1364 238.511 58.4091C238.511 62.6515 239.117 66.5 240.33 69.9545C241.572 73.4091 243.436 76.1667 245.92 78.2273C248.436 80.2576 251.587 81.2727 255.375 81.2727Z" fill="white"/>
<path d="M333.068 120.727C327.159 120.727 322.083 119.924 317.841 118.318C313.598 116.742 310.189 114.621 307.614 111.955C305.038 109.288 303.25 106.333 302.25 103.091L317.068 99.5C317.735 100.864 318.705 102.212 319.977 103.545C321.25 104.909 322.962 106.03 325.114 106.909C327.295 107.818 330.038 108.273 333.341 108.273C338.008 108.273 341.871 107.136 344.932 104.864C347.992 102.621 349.523 98.9242 349.523 93.7727V80.5455H348.705C347.856 82.2424 346.614 83.9848 344.977 85.7727C343.371 87.5606 341.235 89.0606 338.568 90.2727C335.932 91.4848 332.614 92.0909 328.614 92.0909C323.25 92.0909 318.386 90.8333 314.023 88.3182C309.689 85.7727 306.235 81.9848 303.659 76.9545C301.114 71.8939 299.841 65.5606 299.841 57.9545C299.841 50.2879 301.114 43.8182 303.659 38.5455C306.235 33.2424 309.705 29.2273 314.068 26.5C318.432 23.7424 323.295 22.3636 328.659 22.3636C332.75 22.3636 336.114 23.0606 338.75 24.4545C341.417 25.8182 343.538 27.4697 345.114 29.4091C346.689 31.3182 347.886 33.1212 348.705 34.8182H349.614V23.2727H365.841V94.2273C365.841 100.197 364.417 105.136 361.568 109.045C358.72 112.955 354.826 115.879 349.886 117.818C344.947 119.758 339.341 120.727 333.068 120.727ZM333.205 79.1818C336.689 79.1818 339.659 78.3333 342.114 76.6364C344.568 74.9394 346.432 72.5 347.705 69.3182C348.977 66.1364 349.614 62.3182 349.614 57.8636C349.614 53.4697 348.977 49.6212 347.705 46.3182C346.462 43.0152 344.614 40.4545 342.159 38.6364C339.735 36.7879 336.75 35.8636 333.205 35.8636C329.538 35.8636 326.477 36.8182 324.023 38.7273C321.568 40.6364 319.72 43.2576 318.477 46.5909C317.235 49.8939 316.614 53.6515 316.614 57.8636C316.614 62.1364 317.235 65.8788 318.477 69.0909C319.75 72.2727 321.614 74.7576 324.068 76.5455C326.553 78.303 329.598 79.1818 333.205 79.1818Z" fill="white"/>
<path d="M413.159 94.4546C406.341 94.4546 400.432 92.9546 395.432 89.9546C390.432 86.9546 386.553 82.7576 383.795 77.3636C381.068 71.9697 379.705 65.6667 379.705 58.4545C379.705 51.2424 381.068 44.9242 383.795 39.5C386.553 34.0758 390.432 29.8636 395.432 26.8636C400.432 23.8636 406.341 22.3636 413.159 22.3636C419.977 22.3636 425.886 23.8636 430.886 26.8636C435.886 29.8636 439.75 34.0758 442.477 39.5C445.235 44.9242 446.614 51.2424 446.614 58.4545C446.614 65.6667 445.235 71.9697 442.477 77.3636C439.75 82.7576 435.886 86.9546 430.886 89.9546C425.886 92.9546 419.977 94.4546 413.159 94.4546ZM413.25 81.2727C416.947 81.2727 420.038 80.2576 422.523 78.2273C425.008 76.1667 426.856 73.4091 428.068 69.9545C429.311 66.5 429.932 62.6515 429.932 58.4091C429.932 54.1364 429.311 50.2727 428.068 46.8182C426.856 43.3333 425.008 40.5606 422.523 38.5C420.038 36.4394 416.947 35.4091 413.25 35.4091C409.462 35.4091 406.311 36.4394 403.795 38.5C401.311 40.5606 399.447 43.3333 398.205 46.8182C396.992 50.2727 396.386 54.1364 396.386 58.4091C396.386 62.6515 396.992 66.5 398.205 69.9545C399.447 73.4091 401.311 76.1667 403.795 78.2273C406.311 80.2576 409.462 81.2727 413.25 81.2727Z" fill="white"/>
<path d="M486.489 94.3182C481.004 94.3182 476.095 92.9091 471.761 90.0909C467.428 87.2727 464.004 83.1818 461.489 77.8182C458.973 72.4545 457.716 65.9394 457.716 58.2727C457.716 50.5152 458.989 43.9697 461.534 38.6364C464.11 33.2727 467.58 29.2273 471.943 26.5C476.307 23.7424 481.17 22.3636 486.534 22.3636C490.625 22.3636 493.989 23.0606 496.625 24.4545C499.261 25.8182 501.352 27.4697 502.898 29.4091C504.443 31.3182 505.64 33.1212 506.489 34.8182H507.17V0H523.67V93.0909H507.489V82.0909H506.489C505.64 83.7879 504.413 85.5909 502.807 87.5C501.201 89.3788 499.08 90.9849 496.443 92.3182C493.807 93.6515 490.489 94.3182 486.489 94.3182ZM491.08 80.8182C494.564 80.8182 497.534 79.8788 499.989 78C502.443 76.0909 504.307 73.4394 505.58 70.0455C506.852 66.6515 507.489 62.697 507.489 58.1818C507.489 53.6667 506.852 49.7424 505.58 46.4091C504.337 43.0758 502.489 40.4848 500.034 38.6364C497.61 36.7879 494.625 35.8636 491.08 35.8636C487.413 35.8636 484.352 36.8182 481.898 38.7273C479.443 40.6364 477.595 43.2727 476.352 46.6364C475.11 50 474.489 53.8485 474.489 58.1818C474.489 62.5455 475.11 66.4394 476.352 69.8636C477.625 73.2576 479.489 75.9394 481.943 77.9091C484.428 79.8485 487.473 80.8182 491.08 80.8182Z" fill="white"/>
<path d="M556.205 71.1818L556.159 51.3182H558.795L583.886 23.2727H603.114L572.25 57.6364H568.841L556.205 71.1818ZM541.205 93.0909V0H557.659V93.0909H541.205ZM585.023 93.0909L562.295 61.3182L573.386 49.7273L604.705 93.0909H585.023Z" fill="white"/>
<path d="M634.17 94.5C629.746 94.5 625.761 93.7121 622.216 92.1364C618.701 90.5303 615.913 88.1667 613.852 85.0455C611.822 81.9242 610.807 78.0758 610.807 73.5C610.807 69.5606 611.534 66.303 612.989 63.7273C614.443 61.1515 616.428 59.0909 618.943 57.5455C621.458 56 624.292 54.8333 627.443 54.0455C630.625 53.2273 633.913 52.6364 637.307 52.2727C641.398 51.8485 644.716 51.4697 647.261 51.1364C649.807 50.7727 651.655 50.2273 652.807 49.5C653.989 48.7424 654.58 47.5758 654.58 46V45.7273C654.58 42.303 653.564 39.6515 651.534 37.7727C649.504 35.8939 646.58 34.9545 642.761 34.9545C638.731 34.9545 635.534 35.8333 633.17 37.5909C630.837 39.3485 629.261 41.4242 628.443 43.8182L613.08 41.6364C614.292 37.3939 616.292 33.8485 619.08 31C621.867 28.1212 625.277 25.9697 629.307 24.5455C633.337 23.0909 637.792 22.3636 642.67 22.3636C646.034 22.3636 649.383 22.7576 652.716 23.5455C656.049 24.3333 659.095 25.6364 661.852 27.4545C664.61 29.2424 666.822 31.6818 668.489 34.7727C670.186 37.8636 671.034 41.7273 671.034 46.3636V93.0909H655.216V83.5H654.67C653.67 85.4394 652.261 87.2576 650.443 88.9545C648.655 90.6212 646.398 91.9697 643.67 93C640.974 94 637.807 94.5 634.17 94.5ZM638.443 82.4091C641.746 82.4091 644.61 81.7576 647.034 80.4545C649.458 79.1212 651.322 77.3636 652.625 75.1818C653.958 73 654.625 70.6212 654.625 68.0455V59.8182C654.11 60.2424 653.231 60.6364 651.989 61C650.777 61.3636 649.413 61.6818 647.898 61.9545C646.383 62.2273 644.883 62.4697 643.398 62.6818C641.913 62.8939 640.625 63.0758 639.534 63.2273C637.08 63.5606 634.883 64.1061 632.943 64.8636C631.004 65.6212 629.474 66.6818 628.352 68.0455C627.231 69.3788 626.67 71.1061 626.67 73.2273C626.67 76.2576 627.777 78.5455 629.989 80.0909C632.201 81.6364 635.019 82.4091 638.443 82.4091Z" fill="white"/>
</svg>
