<svg width="54" height="100" viewBox="0 0 54 100" fill="none" xmlns="http://www.w3.org/2000/svg">
<path d="M25.0941 0.428394C24.5023 -0.151299 23.5526 -0.141472 22.9729 0.450342L13.5262 10.0945C12.9465 10.6864 12.9563 11.6361 13.5482 12.2158C14.14 12.7954 15.0897 12.7856 15.6694 12.1938L24.0664 3.62118L32.639 12.0182C33.2308 12.5979 34.1805 12.5881 34.7602 11.9963C35.3399 11.4044 35.3301 10.4548 34.7383 9.87506L25.0941 0.428394ZM24.9682 90.7812L26.4682 90.7657L25.5444 1.48445L24.0445 1.49997L22.5445 1.51549L23.4683 90.7968L24.9682 90.7812Z" fill="black"/>
<path d="M30.1399 93.099C29.3537 96.0331 26.3379 97.7743 23.4038 96.9881C20.4698 96.2019 18.7285 93.186 19.5147 90.252C20.3009 87.318 23.3168 85.5768 26.2508 86.3629C29.1848 87.1491 30.926 90.165 30.1399 93.099Z" fill="black" stroke="black"/>
</svg>
