<svg width="54" height="100" viewBox="0 0 54 100" fill="none" xmlns="http://www.w3.org/2000/svg">
<path d="M25.0941 0.428394C24.5023 -0.151299 23.5526 -0.141472 22.9729 0.450342L13.5262 10.0945C12.9465 10.6864 12.9563 11.6361 13.5482 12.2158C14.14 12.7954 15.0897 12.7856 15.6694 12.1938L24.0664 3.62118L32.639 12.0182C33.2308 12.5979 34.1805 12.5881 34.7602 11.9963C35.3399 11.4044 35.3301 10.4548 34.7383 9.87506L25.0941 0.428394ZM24.9682 90.7812L26.4682 90.7657L25.5444 1.48445L24.0445 1.49997L22.5445 1.51549L23.4683 90.7968L24.9682 90.7812Z" fill="white"/>
<path d="M23.2744 97.4712C20.0736 96.6135 18.1741 93.3235 19.0318 90.1227C19.8894 86.9219 23.1794 85.0224 26.3802 85.8801C29.581 86.7377 31.4805 90.0277 30.6229 93.2285C29.7652 96.4293 26.4752 98.3288 23.2744 97.4712Z" fill="white"/>
</svg>
