<svg width="861" height="616" viewBox="0 0 861 616" fill="none" xmlns="http://www.w3.org/2000/svg">
<g filter="url(#filter0_d_1_10)">
<path d="M210.937 218.664H216.873V208.275L218.357 194.918L219.841 187.498L224.293 169.688L228.745 154.847L234.682 140.006L243.586 120.713L251.006 107.356L262.879 91.0306L273.267 77.6736L289.592 59.8643L308.884 43.5391L319.273 36.1186L334.113 27.2139L348.954 19.7934L366.762 12.3729L393.475 4.95232L424.641 0.5H457.29L472.872 1.98411L484.003 3.46822L501.811 7.92054L527.782 16.8252L547.817 25.7298L568.594 37.6027L586.402 50.9597L601.243 62.8325L611.631 74.7054L624.988 89.5465L635.376 104.388L645.764 122.197L653.185 137.038L660.605 154.847L666.541 174.141V180.077H635.376L629.44 181.561L602.727 186.013L585.66 190.466L568.594 197.886L549.301 206.791L531.492 218.664L513.684 232.021L501.811 243.894L491.423 254.282L482.519 264.671L476.582 272.092L469.162 282.48L458.774 297.322L449.869 312.163L440.965 328.488L433.545 341.845L426.125 353.718L421.672 359.654L408.316 375.979L397.928 387.852L390.507 394.531L377.151 407.145L366.762 414.566L353.406 423.471L343.018 429.407L319.273 441.28L298.496 450.185L271.783 457.605L282.171 456.121L297.012 454.637L307.4 453.153L317.047 451.669L338.565 447.216L363.794 439.796L389.023 429.407L406.832 420.502L421.672 411.598L430.577 404.177L443.933 392.304L451.354 384.884L460.258 374.495L467.678 364.106L476.582 350.749L484.003 337.392L492.907 321.067L498.843 310.678L509.232 295.837L521.104 280.996L537.429 264.671L553.753 251.314L577.498 236.473L602.727 226.084L624.988 220.148L645.764 217.18H670.993L687.318 218.664L697.706 220.148L714.031 224.6L734.808 232.021L754.1 240.925L774.877 254.282L792.686 269.123L806.042 282.48L813.462 289.901L823.851 304.742L829.787 313.647L838.691 328.488L846.112 346.297L852.048 365.59L855.016 380.432L856.5 392.304V430.891L855.016 442.764L853.532 451.669L852.048 457.605L847.596 473.93L840.175 493.224L832.755 508.065L822.367 524.39L810.494 539.231L804.558 546.652L797.138 554.072L789.718 560.009L780.813 567.429L767.457 576.334L751.132 586.723L730.355 595.627L705.127 603.048L675.238 607.5H181.256L169.383 606.016L153.059 603.048L136.734 598.595L117.441 591.175L95.1806 579.302L80.3401 568.913L66.9836 557.04L56.5952 546.652L41.7547 528.842L34.3344 516.969L25.4301 500.644L15.0418 475.414L9.10554 454.637L4.65337 427.562C4.65337 427.562 4.30829 390.357 4.65337 383.4C4.99846 376.443 6.13743 371.527 6.13743 371.527L10.5896 350.749L15.0418 337.392L20.978 322.551L28.3982 306.226L38.7866 289.901L50.659 275.06L64.0155 260.219L81.8241 245.378L102.601 232.021C106.806 229.795 117.145 224.6 124.862 221.632C132.579 218.664 152.317 214.459 161.221 212.727H190.16C197.284 212.727 206.979 216.685 210.937 218.664Z" fill="white"/>
<path d="M210.937 218.664H216.873V208.275L218.357 194.918L219.841 187.498L224.293 169.688L228.745 154.847L234.682 140.006L243.586 120.713L251.006 107.356L262.879 91.0306L273.267 77.6736L289.592 59.8643L308.884 43.5391L319.273 36.1186L334.113 27.2139L348.954 19.7934L366.762 12.3729L393.475 4.95232L424.641 0.5H457.29L472.872 1.98411L484.003 3.46822L501.811 7.92054L527.782 16.8252L547.817 25.7298L568.594 37.6027L586.402 50.9597L601.243 62.8325L611.631 74.7054L624.988 89.5465L635.376 104.388L645.764 122.197L653.185 137.038L660.605 154.847L666.541 174.141V180.077H635.376L629.44 181.561L602.727 186.013L585.66 190.466L568.594 197.886L549.301 206.791L531.492 218.664L513.684 232.021L501.811 243.894L491.423 254.282L482.519 264.671L476.582 272.092L469.162 282.48L458.774 297.322L449.869 312.163L440.965 328.488L433.545 341.845L426.125 353.718L421.672 359.654L408.316 375.979L397.928 387.852L390.507 394.531L377.151 407.145L366.762 414.566L353.406 423.471L343.018 429.407L319.273 441.28L298.496 450.185L271.783 457.605L282.171 456.121L297.012 454.637L307.4 453.153L317.047 451.669L338.565 447.216L363.794 439.796L389.023 429.407L406.832 420.502L421.672 411.598L430.577 404.177L443.933 392.304L451.354 384.884L460.258 374.495L467.678 364.106L476.582 350.749L484.003 337.392L492.907 321.067L498.843 310.678L509.232 295.837L521.104 280.996L537.429 264.671L553.753 251.314L577.498 236.473L602.727 226.084L624.988 220.148L645.764 217.18H670.993L687.318 218.664L697.706 220.148L714.031 224.6L734.808 232.021L754.1 240.925L774.877 254.282L792.686 269.123L806.042 282.48L813.462 289.901L823.851 304.742L829.787 313.647L838.691 328.488L846.112 346.297L852.048 365.59L855.016 380.432L856.5 392.304V430.891L855.016 442.764L853.532 451.669L852.048 457.605L847.596 473.93L840.175 493.224L832.755 508.065L822.367 524.39L810.494 539.231L804.558 546.652L797.138 554.072L789.718 560.009L780.813 567.429L767.457 576.334L751.132 586.723L730.355 595.627L705.127 603.048L675.238 607.5H181.256L169.383 606.016L153.059 603.048L136.734 598.595L117.441 591.175L95.1806 579.302L80.3401 568.913L66.9836 557.04L56.5952 546.652L41.7547 528.842L34.3344 516.969L25.4301 500.644L15.0418 475.414L9.10554 454.637L4.65337 427.562C4.65337 427.562 4.30829 390.357 4.65337 383.4C4.99846 376.443 6.13743 371.527 6.13743 371.527L10.5896 350.749L15.0418 337.392L20.978 322.551L28.3982 306.226L38.7866 289.901L50.659 275.06L64.0155 260.219L81.8241 245.378L102.601 232.021C106.806 229.795 117.145 224.6 124.862 221.632C132.579 218.664 152.317 214.459 161.221 212.727H190.16C197.284 212.727 206.979 216.685 210.937 218.664Z" stroke="black"/>
</g>
<defs>
<filter id="filter0_d_1_10" x="0" y="0" width="861" height="616" filterUnits="userSpaceOnUse" color-interpolation-filters="sRGB">
<feFlood flood-opacity="0" result="BackgroundImageFix"/>
<feColorMatrix in="SourceAlpha" type="matrix" values="0 0 0 0 0 0 0 0 0 0 0 0 0 0 0 0 0 0 127 0" result="hardAlpha"/>
<feOffset dy="4"/>
<feGaussianBlur stdDeviation="2"/>
<feComposite in2="hardAlpha" operator="out"/>
<feColorMatrix type="matrix" values="0 0 0 0 0 0 0 0 0 0 0 0 0 0 0 0 0 0 0.25 0"/>
<feBlend mode="normal" in2="BackgroundImageFix" result="effect1_dropShadow_1_10"/>
<feBlend mode="normal" in="SourceGraphic" in2="effect1_dropShadow_1_10" result="shape"/>
</filter>
</defs>
</svg>
